<?xml version="1.0" encoding="UTF-8"?><svg id="Layer_1" xmlns="http://www.w3.org/2000/svg" width="1467" height="999.87" viewBox="0 0 1467 999.87"><defs><style>.cls-1{fill:#10aec0;}.cls-2{fill:#008dc1;}</style></defs><path class="cls-2" d="M76.76,0c-3.11,2.79-6.18,5.68-9.18,8.68h0c-90.12,90.12-90.12,236.22,0,326.34l108.14,108.14c50.41-36.81,121.51-32.46,167.03,13.06L886.41,999.87l580.58-.12h0L358.08,0H76.76Z"/><path class="cls-2" d="M240.76,999.71h364.57l-316.56-316.56c-50.33-50.33-131.95-50.33-182.29,0h0c-50.33,50.33-50.33,131.95,0,182.29l84.27,134.27h50Z"/><path class="cls-1" d="M716.4,999.71l150-.51L340.04,472.84c-50.33-50.33-131.95-50.33-182.29,0h0c-50.33,50.33-50.33,131.95,0,182.29l244.57,344.57h314.08Z"/></svg>