<?xml version="1.0" encoding="UTF-8"?><svg id="Layer_1" xmlns="http://www.w3.org/2000/svg" width="967.49" height="1034" viewBox="0 0 967.49 1034"><defs><style>.cls-1{fill:#05adbf;}.cls-2{fill:#058cc0;}</style></defs><path class="cls-2" d="M305.91,0c-3.22,2.89-6.39,5.88-9.49,8.98h0c-93.21,93.21-93.21,244.32,0,337.53l111.85,111.85c52.14-38.07,125.68-33.57,172.76,13.51l386.47,386.47V370.61L596.88,0H305.91Z"/><path class="cls-2" d="M475.53,1034h377.08l-327.42-327.42c-52.06-52.06-136.48-52.06-188.54,0h0c-52.06,52.06-52.06,136.48,0,188.54l138.88,138.88Z"/><path class="cls-1" d="M967.49,1034v-155.67l-389.27-389.27c-52.06-52.06-136.48-52.06-188.54,0h0c-52.06,52.06-52.06,136.48,0,188.54l356.39,356.39h221.41Z"/></svg>