<?xml version="1.0" encoding="UTF-8"?><svg xmlns="http://www.w3.org/2000/svg" width="1241.38" height="2208" xmlns:xlink="http://www.w3.org/1999/xlink" viewBox="0 0 1241.38 2208"><defs><style>.cls-1{fill:#d4a87f;}.cls-2{fill:#6e5d33;}.cls-3{fill:none;stroke:#000;stroke-miterlimit:10;}.cls-4{opacity:.9;}.cls-4,.cls-5{fill:#c1272d;}.cls-6{fill:#301c0a;}.cls-7{fill:#a67c52;}.cls-8{fill:#603813;}.cls-9{fill:#e6e6e6;}.cls-10{fill:url(#radial-gradient);}.cls-11{fill:#42210b;}.cls-12,.cls-13{fill:#984a3c;}.cls-14{fill:#d9e021;}.cls-15{fill:url(#radial-gradient-2);}.cls-16{fill:#1b142e;}.cls-17{fill:#a2816c;}.cls-18{fill:#e3bb8c;}.cls-19{fill:#ddaf99;}.cls-20{fill:#b3b3b3;}.cls-21{fill:#d7cab2;}.cls-22{fill:#b99374;}.cls-13{opacity:.5;}.cls-23{fill:#b9936e;}</style><radialGradient id="radial-gradient" cx="471.96" cy="845.9" fx="471.96" fy="845.9" r="19.66" gradientTransform="matrix(1, 0, 0, 1, 0, 0)" gradientUnits="userSpaceOnUse"><stop offset="0" stop-color="#00d7cd"/><stop offset=".3" stop-color="#00aacb"/><stop offset=".97" stop-color="#003bc6"/><stop offset="1" stop-color="#0036c6"/></radialGradient><radialGradient id="radial-gradient-2" cx="730.7" cy="829.66" fx="730.7" fy="829.66" r="19.47" gradientTransform="translate(112.62 -87.18) rotate(7.37)" gradientUnits="userSpaceOnUse"><stop offset="0" stop-color="#00d7cd"/><stop offset=".3" stop-color="#00aacb"/><stop offset=".97" stop-color="#003bc6"/><stop offset="1" stop-color="#0036c6"/></radialGradient></defs><g id="BG"><path class="cls-5" d="M483.06,1446.17s-9.06,73.83-45.06,63.83-115,24-105,74c3.97,19.83,43,105,9,158-20.09,31.32-12,3-3-16s18-27-15-115,86.66-119.39,119.83-110.19,27.17-75.81,27.17-75.81l12.06,21.17"/><path class="cls-5" d="M753.92,1463.84s23.82,32.3,27.82,54.35c3.42,18.85,9.44,22.19,14.21,22.64,5.65,.53,12.93-4.21,4.16-13.87-2.41-2.66-2.43-2.02-4.36-3.9-.86-.84-4.83-11.07-5.46-12.08-3.04-4.93-12.04-18.15-36.37-47.14"/><path class="cls-5" d="M647.05,1500.54s5.93,17,4.72,26.99c-1.03,8.53,1.11,10.76,3.09,11.59,2.35,.98,6.1-.09,3.62-5.39-.68-1.46-.89-5.62-1.47-6.68-.26-.47-.49-.95-.62-1.48-.65-2.52-2.75-9.38-9.34-25.03"/><path class="cls-5" d="M510,1483s-73,79-69,97,43-70,69-97Z"/><path class="cls-5" d="M575.62,1498.65s-38.03,41.15-35.95,50.53,22.4-36.47,35.95-50.53Z"/><path class="cls-5" d="M863,1470s41.51,17.11,41.26,35.56-17.26-20.56-41.26-35.56Z"/><path class="cls-5" d="M883.63,1524.81s13.37,24.19,17.37,22.19-17.37-22.19-17.37-22.19Z"/><path class="cls-5" d="M822,1497.6s21,39.4,26.72,49.51c5.2,9.19,27.28,6.09-26.72-49.51Z"/><path class="cls-14" d="M417.43,1427.72s28.57-14.72,34.57-31.72l4.18,69.66s-47.33-12.21-38.76-37.94"/><line class="cls-14" x1="439.82" y1="600.18" x2="354.25" y2="564.68"/></g><g id="Layer_11"><path class="cls-5" d="M421,1425c-6.69,.9-8.46,18.98-6.93,25.56,2.49,10.7,10.24,23.86,33.7,20.28,24.05-3.67,30.62,2.55,32.19,7.67,1.31,4.27,4.81,7.56,9.23,8.2,4.15,.6,9.37,.67,14.92-.95,12.9-3.76,20.86-10.95,25.38-2.36s12.72,27.86,25.12,20.73,23.34-26.13,39.87-14.13,11.53,30.48,36.03,23.24,14.14-32.2,41.82-12.22,1.75,41.27,36.21,29.62,18.17-41.57,50.32-23.11,58.14,9.94,60.15,5.7,.6-32.24,17.8-23.24,11.8,9,20.2,4,9.86-24.32,10-30-361.29-32.55-385.64-34.86c-.87-.08-1.74-.06-2.6,.05l-57.76-4.2Z"/></g><g id="Layer_4"><path class="cls-5" d="M416.03,1431.05s-35.17,29.63-53.17,22.63c-8.55-3.33-12.36-2.14-14.01,.03-1.89,2.48,.2,6.03,3.31,5.81,10.83-.76,40.06-5.02,63.87-28.47"/><path class="cls-9" d="M600.54,1466.53s-9.82,97.22-6.09,127.56c.13,1.1-.35,2.16-1.26,2.79-6.61,4.56-31,24.09,7.35,41.33,25.16,11.31,27.97-.91,25.81-13.33-.65-3.75,2.47-5.94,2.88-2.16,1.41,12.99,10.47,23.07,26.37,13.81,27.81-16.2,23.21-46.78,4.7-56.66-17.52-9.35-23.29-100.29-23.86-110-.03-.56-.22-1.08-.54-1.53l-15.6-21.86c-1.16-1.63-3.58-1.65-4.78-.05l-14.97,20.11"/><path class="cls-20" d="M612.91,1464.51s-16.32,96.68-7.53,118.02c8.78,21.31-5.02-47.71,7.53-118.02Z"/><path class="cls-5" d="M426.26,1459.53s-129.4,53.15-131.4,71.15c-2,18,21.81-27.31,131.4-71.15Z"/><path class="cls-5" d="M318.49,1465.42c.03-.1,.13-.17,.2-.26,1.84-2.34,6.94-7.67,15.16-4.48,0,0-17.74,11.48-15.37,4.74Z"/><path class="cls-5" d="M696.7,1506.24s59.16,62.44,37.16,84.44-55,58.1-55,89,27,90,65,94,56.16,45.43,47.08,66.21c-3.97,9.09-4.13,6.94-1.08,3.79,7.28-7.52,7.46-16.64,6-27-2.25-15.95-5.98-26.15-25-42-28.21-23.51-64-25-74.98-60.93-3.49-11.41-4.33-21.28-4.59-33.21-.44-19.86,31.02-58.04,42.06-67.82,8.93-7.91,19.64-18.31,17.5-30.05-4.48-24.59-23.02-63.71-54.16-76.44"/><path class="cls-5" d="M582.38,1512.75c-.05-.09-.04-.21-.05-.33-.45-2.94-.87-10.31,7.08-14.14,0,0-3.72,20.8-7.03,14.47Z"/><path class="cls-22" d="M849,1168s-4.14,105.68,4.86,213.68c0,0,.09,35.78,9,69,.83,3.1,5.58,15.2,4,18-13,23-90.03,49.31-107.2,44.73-1.8-.48-3.63-.92-5.49-1.1-9.69-.92-14.39-.95-16.57-.83-1.64,.09-3.27,0-4.9-.2-11.99-1.54-54.56-7.17-64.84-10.6-11.08-3.69-73.27-7.38-82.78-7.93-.83-.05-1.66-.13-2.48-.26-13.78-2.08-135.93-21-155.74-40.81-17.33-17.33-9.47-25.12-6.19-27.32,1.72-1.15,3.29-2.51,4.71-4.01,5.49-5.77,15.47-18.83,15.47-37.67,0-26,10.83-89.06-7.08-171.53-14.84-68.31,68.36,42.07,97.38,82,6.03,8.29,16.2,12.49,26.32,10.86l191.69-30.78c6.26-1.01,11.98-4.17,16.16-8.94l84.62-96.6"/><path class="cls-17" d="M477.9,1243.47s64.72,189.06,135.76,187.57,68.04-71.49,68.04-71.49c0,0-1-39,79-55s36.08-119.64,36.08-119.64l-318.89,58.55"/><path class="cls-19" d="M849.19,1155.89s-48.8,45.2-39.52,66.08c6.26,14.1,23.22,54.33,33.28,78.14,3.83,9.07,7.13,8.43,7.3-1.41,.8-43.98-1.06-142.81-1.06-142.81"/><path class="cls-1" d="M942.88,843.34s-8.99-24-26.96-29c-17.97-5-26.96,12-26.96,12l-9.11,18.34s-3.75,20.07-4,18c-2.93-23.89-22.88-172.14-57.79-204.34-37.94-35-122.23-116.34-228.07-64.34,0,0-111.42-94.66-200.28,73.34,0,0-29.95,60-29.95,80s7.99,51,1,62c-6.99,11-6.99,47-6.99,47,0,0-6.38-5.55-11.08-2.45s-7.94,2.4-9.7,5.1c-3.9,6-16.17,8.34-17.17,36.34-1,28,10.34,85.32,7.17,96.66-2.91,10.41,9,34,9,34,0,0,18.78,37.34,43.74,36.34,0,0,13.98,117,52.92,144,0,0,30.34,38.66,37.94,48,9.03,11.09,32.95,37,32.95,37,0,0,29.95,29.64,87.87,34.82,57.91,5.18,154.77-33.82,154.77-33.82,0,0,69.89-51,71.89-69,2-18,32.95-58,32.95-58,0,0,11.98-4,24.96-136,0,0,12.98,1,19.97-1,6.99-2,32.95-23,36.94-37s7.99-36,9.98-38c2-2,11.97-92.66,3.99-110Z"/><path class="cls-18" d="M714.54,1297.88c-1.25-.34-1.76-1.84-.96-2.86,9.06-11.43,54.27-70.02,63.24-112.32,7.18-154.7,.91-89.58,6.18-136.7,.85-12.34-.06-25.33,3.15-38.72,15.85-66.28,34.92-89.38,39.85-96.28,19-27,27.48-52.28,20-80-17-63-39-70-42-68-.32,.21-2.1,.37-2,0,1.55-5.83,.78-102.06-53-156-1.58-1.58,61.58,34.17,78.64,58.51,8.66,12.36,15.14,26.12,19.18,40.66l11.73,41.67h0c2.86,6.53,4.84,13.41,5.89,20.46l17.55,117.3c0,.05,.02,.09,.03,.14,.37,1.53,6.94,29.75-.02,68.79-4.34,24.36-8.1,96.51-16.15,151.15-5.17,35.09-14.49,62.54-18.87,66.88-.08,.08-.15,.16-.22,.26-1.05,1.59-10.76,16.32-24.88,35.1-29.47,39.19-78.12,97.88-107.34,89.95Z"/><path class="cls-18" d="M792.74,1253.78c.08-.07,.16-.13,.24-.21,1.9-1.81,22.88-14.89,28.91-45.64,3.91-19.95-94.92,75.8-105.16,85.9-.56,.55-1.29,.89-2.08,.97h0c-1.88,.18-3.29,1.85-3.09,3.73s1.3,3.71,5.07,3.17c6.64-.94,25.17-8.89,28.15-10.18,.27-.12,.52-.27,.76-.45l47.2-37.29Z"/><path class="cls-23" d="M503.89,1251.8c12.11,17.2,19.11,52.2,20.11,57.2h0c-24-7-67.31-65.51-74.14-73.98-25.86-32.02-54.45-38.2-72.86-164.02-.63-4.3-1.83-6.71-5.89-8.28-10.01-3.86-34.63-17.46-38.25-29.04-4.96-15.88-14.99-25.21-14.61-75.57,0-.74-.02-1.49-.09-2.23-2.27-25.05-8.62-75,3.89-85.32,2.69-2.22,5.01-4.84,6.64-7.94,1.49-2.85,4.19-5.87,9.05-7.04,9.85-2.38,17.45-10.17,18.9-20.2l3.22-22.34c.18-1.28,.27-2.57,.25-3.87-.21-13.69-.53-97.33,21.76-123.5,23-27,18.3-68,84.15-103,49.4-26.26-3.57,53.07-19.01,98.32-7.22,21.18-2,78-15,103h0c11,2-30,1-5,4h0c4.93-.82,70.68-11.86,102-4,6.76,1.7,20.79,27.57,19.02,34.31-5.76,22,10.98,30.31,3.98,41.69h0c-11,12-3,8-26,27h0c-2-1-32,32-79.14,21.68-28.48-6.23,28.06,139.27,1.14,168.32-38,41,36.65,147.48,55.89,174.8Z"/><path d="M603.78,1029.85c2.46,5.77,3.81,11.63,8.06,16.34-6.09-2.36-8.52-10.32-8.06-16.34h0Z"/><path class="cls-7" d="M878.59,861.99c2.85-8.27-22.89-175.16-57.53-206.8-59.56-54.4-119.1-111.5-230.65-62-111.55,49.5,0,0,0,0,0,0-138.03-119.55-225.71,139.15s0,0,0,0c0,0,70.3-227.33,225.3-138.33,0,0,100-44,202.21,41.64,16.42,13.76,34.79,30.36,43.65,51.05,16.41,38.32,28.55,102.2,42.73,175.3"/><path d="M615.36,1015.18c6.67,11.05,15.64,30.06,12,43,.37-1.86,.48-3.75,.39-5.63-.93-13.23-6.86-25.51-12.39-37.37h0Z"/><path d="M577.41,1068.66c7.4,.54,18.93,1.7,24.33,7.21l-.7-.05c5.49-4.68,12-8.4,19.15-9.69,2.39-.34,4.82-.36,7.18,.05-4.77-.42-9.48,.75-13.79,2.71-4.44,2.04-8.59,4.78-12.27,7.98-4.6-5.46-16.97-7.06-23.89-8.21h0Z"/><path d="M589.36,1015.21c-1.54,4.18-3.34,8.68-4.86,12.84-.8,2.14-1.54,4.29-2.2,6.46-.59,2.16-1.37,4.41-.93,6.67-2.01-6.18,4.82-20.3,8-25.97h0Z"/><path class="cls-18" d="M874.99,1033.34s32.96,6.66,56.91-38c0,0,11.54-35.91,11.25-43.78,0,0,6.88-50.09,5.29-57.48,0,0,3.46-42.99-5.06-52.19,0,0-30.06-58.16-59.79,5.32-29.73,63.48,0,0,0,0l-5.01,21.78-3.6,164.36Z"/><path class="cls-17" d="M486.69,857.48s33.47-5.43,35.32-7.11-3.91-19.66-37.53-19.18"/><path class="cls-17" d="M718.86,815.68s38.14-6.68,64.14,15.32c-20,13-71.04,13.78-71.04,13.78"/><path class="cls-17" d="M718.86,815.68s-37.52,.38-48.51,27.94c0,0,33.34,3.19,52.51,.06"/><path class="cls-17" d="M451.76,836.36s-33.65,14.83-39.03,21.83c0,0,25.43,2.04,39.03,2.52"/><path class="cls-21" d="M426.86,852.68s16.74-15.4,28.37-17.2,22.77-10.48,49.42,2.04c0,0,9.89,4.75-3.12,11.27-2.08,1.04-4.1,2.24-5.96,3.64-7.07,5.32-29.6,17.86-68.71,.24Z"/><path class="cls-21" d="M688.86,832.68c1,0,3.14-6.68,10.68-11.49,0,0,8.4-7.02,32.86-5.77,24.46,1.26,35.37,5.22,44.41,14.24,0,0,.74,5.62-31.61,12.32s-56.35-9.3-56.35-9.3Z"/><path class="cls-8" d="M623.85,771.37c-.01-.35,.31-.62,.66-.54,5.14,1.14,30.35,.85,44.35-.15s57.49-14.17,77.74-11.09c20.26,3.09,54.26,3.09,58.26,3.09s-58.04,10.58-62,9c-5-2-35.79,5.26-46,10s-18.5,4-37,4c-16,0-19.8,.77-28-3-7.13-3.28-7.94-9.28-8.01-11.31Z"/><path class="cls-10" d="M448.51,845.09c1.62,11.31,7.16,16.8,25.06,15.4,0,0,22.5-1,21.91-17.39-.55-15.12-20.7-11.91-23.81-11.32-.28,.05-.55,.09-.83,.12-3.25,.32-23.81,2.77-22.33,13.19"/><path class="cls-16" d="M470.68,850.36c1.41-.11,8.45-.68,7.94-7.04s-7.56-5.79-7.56-5.79c0,0-6.26,.5-5.75,6.86s5.37,5.96,5.37,5.96Z"/><path d="M449.86,885.68c8-1.45,16.31-2.86,24.22-4.63,6.9-1.65,14.19-2.9,20.33-6.6,.81-.59,1.62-1.29,1.95-2.28-.22,1.03-1,1.84-1.79,2.49-5.91,4.24-13.35,5.62-20.28,7.36-8.07,1.69-16.21,2.98-24.43,3.65h0Z"/><path d="M398.36,848.18c6.82-6.4,15.53-10.71,24.07-14.34,15.13-6.19,31.5-9.89,47.67-11.97,10.81-1.55,24.08-2.18,35.06-2.4-19.63,1.09-39.96,3.14-59.05,7.79-2.25,.47-7.85,2.09-10.16,2.7-3.86,1.21-9.52,3.11-13.23,4.59-8.57,3.47-17.3,7.57-24.36,13.63h0Z"/><path d="M519.36,858.18c.2-.42,.96-.62,1.34-.85,7.5-3.17,8.98-9.31,7-16.72-.24-1.04-.56-2.05-.84-3.08,4.23,7.84,3.79,17.32-6.06,20.05-.35,.15-1.23,.29-1.44,.61h0Z"/><path d="M524.16,870.19c2.75-2.97,6.63-7.08,9.28-10.05,2.91-3.43,6.3-6.69,7.92-10.96-.9,4.56-4.28,8.18-7.18,11.63-3.08,3.39-6.38,6.6-10.02,9.38h0Z"/><path d="M528.96,876.32c6.32-4.28,12.64-9.65,15.47-16.92,.44-1.03,.65-2.12,.93-3.22-.06,1.12-.16,2.26-.46,3.36-2.16,7.7-8.87,13.54-15.94,16.78h0Z"/><path d="M700.22,856.18c6.23,3.48,13.21,5.56,20.1,7.26,9.65,2.23,19.87,3.15,29.76,2.59,5.72-.19,11.38-1.1,17.04-2.05-3.92,.95-8.69,1.95-12.69,2.41-17.6,2.16-38.97-.76-54.2-10.21h0Z"/><path d="M663.45,833.83c1.65-9.35,9.35-16.65,17.89-20.15,6.49-2.78,13.55-3.62,20.53-3.78,2.33,.1,4.65,.17,6.96,.3-9.16,.15-18.6,.71-27.1,4.4-8.44,3.39-15.89,10.26-18.28,19.23h0Z"/><path class="cls-3" d="M772.22,812.18c2.14,0,23.2,.54,32.17,9.77"/><path d="M580.86,765.68c.87,7.07,1.58,14.82-1.58,21.49-1.04,2.34-3.6,3.29-5.43,4.85-3.64,3.02-6.63,6.82-9.47,10.66-2.11,2.9-4.11,5.9-5.74,9.1-.49,1.07-1.09,2.17-1.13,3.37,.04-2.42,1.45-4.61,2.46-6.75,2.33-4.23,5.05-8.25,8.16-11.94,2.33-2.73,4.92-5.53,8.13-7.26,5.65-4.07,4.87-17.12,4.61-23.52h0Z"/><path d="M673.36,943.18c4.39,7.67,6.03,16.58,7.42,25.21,.31,2.18,.82,6.56,1,8.75,2.6,14.23-3.51,29.27-15.7,37.42-2.89,1.28-5.88,2.21-8.92,2.94-8.91,2.12-19.24,2.4-26.9-3.31,7.8,5.31,17.94,4.83,26.72,2.58,2.89-.74,6.12-1.85,8.65-2.95,11.66-7.91,17.79-22.75,15.3-36.6-.46-5.65-1.12-11.83-2.26-17.38-1.17-5.71-2.55-11.49-5.31-16.65h0Z"/><path d="M568.36,889.18c-6.22,12.24-12.3,24.55-18.23,36.94-5.85,12.41-11.78,24.82-16.49,37.69-1.13,3.21-2.28,6.48-2.73,9.79-1.5,17.3-6.9,35.41,10.86,46.4,5.9,3.53,13.57,3.45,19.58,.18-5.99,3.44-13.76,3.69-19.82,.25-18.41-11.25-13.02-29.12-11.57-46.93,1.84-10.25,6.63-19.58,10.67-29.07,8.52-18.77,17.94-37.11,27.73-55.24h0Z"/><g><path class="cls-11" d="M589.36,1005.18s-12.88-28.13-40.94-6.56c0,0-6.06,8.56,7.94,9.56s20.29-13.88,20.29-13.88"/><path class="cls-11" d="M589.36,1005.18c-6.19-11.47-17.69-17.69-30.26-12.31-3.74,1.48-7.15,3.7-10.38,6.13-.45,.76-1.51,3.09-1,4.51,1,3.34,5.38,3.87,8.42,4.22,9.01,1,16.74-5.72,20.51-13.43-3.41,8.1-11.33,15.12-20.58,14.27-3.4-.34-8.12-.98-9.25-4.83-.47-1.93,.2-3.94,1.31-5.51,3.24-2.52,6.78-4.71,10.63-6.22,12.88-5.45,24.89,1.1,30.61,13.17h0Z"/></g><g><path class="cls-11" d="M615.71,997.83s2.77-2.67,7.01-5.73c.74-.53,1.52-1.08,2.34-1.62,9.9-6.56,25.32-13.05,34.3,1.7,0,0,9.45,11-3.28,13s-28.72-13-28.72-13"/><path class="cls-11" d="M615.71,997.83c8.45-7.94,22.06-17.86,34.27-14.19,4.16,1.23,7.81,4.87,9.76,8.22,5.31,6.51,4.93,13.15-4.61,13.83-9.82,.77-20.87-7.1-27.77-13.5,7.17,5.98,18.01,13.46,27.69,12.65,8.8-.65,8.73-6.48,3.93-12.32-2.16-3.58-5.28-6.72-9.29-8-11.86-3.57-25.31,5.96-33.98,13.33h0Z"/></g><path class="cls-13" d="M500.36,1127.18c-1.05-.95,32-39,57-48s33-2,42,2,13-3,13-3c0,0,19.19-13.77,39.1-3.39s41.9,17.39,71.9,45.39c0,0-56,42-69,45,0,0-34,8-41,3-7-3-12.03,.8-12.03,.8,0,0-33.97,19.2-100.97-41.8Z"/><path d="M501.63,1128.33c3.54,1.81,7.17,3.49,10.94,4.69,1.38,.4,2.85,.82,4.28,.67,.49-.05,.77-.22,1.24-.53,1.75-1.05,3.58-1.84,5.41-2.64,3.68-1.56,7.42-2.98,11.34-3.96,1.92-.52,3.92-.43,5.91-.91,5.86-1.25,11.66-2.75,17.68-3.31,3.93-.49,8.26-.17,12.06,.6,7.75,.83,15.75-.53,23.26-2.47,1.58-.88,5.21-2.44,7.69-3.11,1.7-.49,3.59-.86,5.43-.79,3.86,.45,7.53,2.08,11.21,3.03,4.13,1.15,7.61,1.94,11.48-.12,5.2-2,10.98-4.6,16.67-2.83,3.87,1.31,7.96,1.85,12.02,2.44,5.39,.82,11.11,1.16,16.5,2.03,6.8,1.18,13.6,2.64,20.36,3.89,4.08,.17,8.27-.09,12.34-.55,5.45-.7,11-1.69,15.9-4.29-4.8,2.83-10.37,4.02-15.83,4.89-4.16,.59-8.28,.99-12.5,.94-7.53-1.22-15-2.73-22.54-3.8-7.57-.72-15.26-1.23-22.73-2.78-2.66-.44-5.09-1.82-7.88-1.56-3.97,.22-7.9,1.83-11.61,3.34-1.25,.47-2.81,1.29-4.15,1.41-5.9,.38-11.07-2.07-16.52-3.5-.92-.26-1.89-.51-2.83-.59-1.61-.07-3.21,.25-4.8,.69-2.61,.73-5.2,1.81-7.62,3.04-3.95,1.04-7.91,1.8-11.95,2.27-4,.47-8.07,.63-12.13,.13-2.09-.34-3.89-.74-5.84-.83-5.9-.31-11.76,.71-17.56,1.86-1.95,.39-3.89,.81-5.87,1.18-1.9,.43-3.93,.31-5.89,.79-3.83,.88-7.6,2.22-11.28,3.63-1.83,.73-3.69,1.48-5.4,2.42-.39,.25-.99,.56-1.5,.57-1.56,.12-3.05-.37-4.49-.83-3.79-1.32-7.34-3.17-10.8-5.13h0Z"/><path d="M578.96,1123.97c-.87,2.86-2.06,5.49-2.66,8.37-.18,.94-.28,1.88,.06,2.84-2.3-3,.55-8.65,2.6-11.22h0Z"/><path d="M672.65,1129.57l-11.19-9.22,7.96,.83s1.01,7.28,3.23,8.39Z"/><path d="M594.01,1121.38s5.7,.45,12,.73c.17,0,.34,.02,.51,.02,6.98,.3,17.2,.29,15.83-.59-4.49-2.87-17.23-4.6-17.23-4.6l-11.11,4.43Z"/><path d="M612.49,1130.49s-2.64-6.48-7.64-8.15,9.06-.96,9.06-.96c0,0,1.21,7.92-1.43,9.11Z"/><path class="cls-17" d="M532.49,1181.68s0-.01,0-.01c.68,.17,43.84,10.76,65.52-2.56,21.85-13.43,33.85,.57,33.85,.57,0,0,40,18,60,17s-52.77,5.08-65.39,.04c-8.93-3.57-13.55,.41-15.48,3.03-1.06,1.44-2.61,2.44-4.34,2.92-11.43,3.18-50.75,11.19-74.17-21Z"/><path d="M544.65,1183.99c6.35,.79,12.76,1.18,19.15,1.21,9.53,.02,19.25-.57,28.29-3.77,3.05-1.02,5.67-2.75,8.49-4.32,5.68-3.06,12.31-4.94,18.79-3.78,3.23,.56,6.3,1.82,9.08,3.49,2.76,1.69,5.14,3.7,8.17,4.91,11.71,5.06,24.03,8.82,36.37,12.05,6.11,1.36,12.58,3.51,18.87,2.89-6.3,.78-12.82-1.21-18.98-2.42-12.46-3.06-24.82-6.62-36.63-11.7-2.98-1.16-5.58-3.26-8.29-4.92-2.71-1.61-5.67-2.81-8.76-3.33-6.25-1.15-12.66,.65-18.19,3.59-2.78,1.53-5.56,3.33-8.62,4.33-9.15,3.19-19,3.6-28.59,3.44-6.41-.19-12.81-.74-19.14-1.69h0Z"/><path d="M506.5,1141.5c-5.54-2.66-10.39-7.71-11.38-13.99-.72-4.62,.28-9.78,3.79-13.1,1.12-1.09,2.4-1.96,3.59-2.92-1.04,1.14-2.26,2.09-3.22,3.26-3.1,3.38-3.81,8.18-3.17,12.6,.92,6.02,5.39,10.93,10.39,14.14h0Z"/><path d="M724.5,1129.5c3.02-2.31,10.58-7.59,7.85-11.92-1.65-2.07-3.26-4.31-5.58-5.49-2.39-1.16-4.99-2.17-7.27-3.59,3.65,1.72,8.15,2.23,11,5.35,1.32,1.6,3.23,3.09,3.43,5.28,0,4.78-5.73,8.31-9.43,10.37h0Z"/><path d="M597.86,711.68c-.83,4.04-1.78,8.03-2.57,12.04-.58,3-1.18,6.01-1.2,9.06,0,1.01,.1,2.03,.61,2.94-3.39-4.82,1.05-18.79,3.17-24.04h0Z"/><path d="M644.05,845.12c25.96,27.75,60.03,51.31,98.81,54.57-2.4-.17-4.82-.21-7.21-.56-2.03-.18-5.11-.69-7.17-1.05-33.19-6.58-62.6-27.68-84.43-52.96h0Z"/><path d="M551.5,860.5c-18.58,25.83-46.87,48.63-79.77,50.34-2.2,.04-4.51,.09-6.71-.07l-3.34-.24c36.53,2.07,68.37-22.58,89.82-50.03h0Z"/><path d="M412.73,858.18c26.17-20.39,65.16-37.86,97.31-21.59,1.9,1.02,4.67,2.63,6.39,3.91,.85,.57,2.23,1.54,3,2.23l2.88,2.39c-3.92-3.07-7.99-5.97-12.49-8.09-32.25-15.43-70.28,1.92-97.09,21.15h0Z"/><path class="cls-1" d="M811.11,1190.77c2.5-24.08,13.23-112.09,38.75-134.78,.89-.79,2.26,.05,1.92,1.19-2.85,9.6-10.18,36.49-6.92,49.5,0,0,4.76,13.32-31.54,84.74-.59,1.16-2.34,.64-2.21-.65Z"/><path class="cls-1" d="M913.04,848.72c-2.59-1.43-2.88-5.09-.62-6.99,8.72-7.37,25.5-16.22,31.37,17.96,8.06,46.99-8.94,108.99-15.94,116.99s-10,2-4-17c5.56-17.61,12.28-98.23-10.81-110.97Z"/><path class="cls-1" d="M888.86,952.68s9.68-2.42,.78-30.46c-2.25-7.1-2.96-14.6-2-21.99,.74-5.69,1.21-11.56,.22-12.55-2-2,22,12,27,10s7,56-2,58-20,12-20,16-9.66,2-9.83,1,.83-19,5.83-20Z"/><path class="cls-1" d="M894.02,873.5c-2.8-.57-4.5-3.42-3.67-6.15,1.42-4.64,3.78-10.86,6.36-11.17,4.14-.5,10.4,11.93,8.27,16.22-1.28,2.58-6.77,1.95-10.96,1.1Z"/><path class="cls-1" d="M883.01,981.85s28.85,11.83,25.85,17.83-25.85-5.06-25.85-5.06c0,0-2.85-12.6,0-12.77Z"/><path class="cls-17" d="M344.32,999.36s-24.36-16.23-8.91-70.95,9.45-24.81,11.45-36.77c1.05-6.28-2.16-11.33-5.44-14.71-3.67-3.78-9.65-4.29-13.73-.95-3.22,2.63-5.97,6.91-4.83,13.7,2.94,17.5,2.38,54.29,3,58,1,6-6.64,40.49,19.18,53.74"/><path class="cls-17" d="M355.12,983.84c.35,1.31-.93,2.5-2.19,2.01-3.88-1.5-10.03-5.9-9.64-18.64,.57-18.53-3.03-39.02,3.77-37.28,6.43,1.65,3.43,36.55,8.06,53.9Z"/><path class="cls-17" d="M360.74,1024.88c.79-.89,.22-2.29-.96-2.37-4.33-.29-12.15-.01-10.36,5.98s8.21-.08,11.33-3.61Z"/><path class="cls-2" d="M363.75,807.18c6.99-11-1-42-1-62s29.95-80,29.95-80c88.87-168,197.7-71,197.7-71,105.84-52,192.71,27,230.65,62,34.91,32.2,54.6,182.92,57.53,206.8,3.14-12.6,7.48-34.89,13.66-75.3,17-111-20-218-20-218-37-100-133-142-133-142,0,0-80-27-173-22s-142,70-142,70c-78,41-65,88-70,88s-14,31-14,31l-9.39,13.89v19.15c-18.39,11.04-15.32,63.55-17.61,76.96-2.39,14,26.4,113.42,35.61,148,5.59,.64,7.9,1.5,7.9,1.5,0,0,0-36,6.99-47Z"/><path class="cls-6" d="M542.98,523.18c15.24-18.97,33.16-35.65,52.04-50.94,7.67-6.03,15.52-11.86,24.06-16.64,3.25-1.71,6.58-3.5,10.25-4.16,1.17-.16,2.69-.25,3.52,.75-.97-.79-2.29-.48-3.39-.16-3.39,1.15-6.39,3.23-9.35,5.24-7.88,5.53-15.32,11.71-22.7,17.91-17.18,14.41-37.62,32.89-54.43,48.01h0Z"/><path class="cls-6" d="M632.84,485.51c11.45-10.84,37.25-27.18,53.42-24.33-2.49,.33-4.83,.96-7.13,1.76-15.76,5.8-31.03,15.55-46.29,22.57h0Z"/><path class="cls-6" d="M571.43,559.18c9.39-15.12,28.51-34.56,47.09-36-18.25,6.12-33.53,22.78-47.09,36h0Z"/><path class="cls-6" d="M490.38,520.18c6.9-18.61,22-43.48,39.12-54-14.97,16.64-25.96,35.98-39.12,54h0Z"/><path class="cls-6" d="M451.61,511.18c7.06-11.29,15.95-21.26,25.76-30.22,3.4-2.79,6.74-6.16,10.96-7.63-1.75,1.33-3.02,3.18-4.47,4.81l-4.25,5.03c-8.68,9.98-17.61,19.74-28,28.01h0Z"/><path class="cls-6" d="M443.63,562.18c6.09-16.2,13.75-31.84,23.51-46.16,4.97-7.11,10.43-14.02,17.04-19.7,1.38-1.07,2.76-2.13,4.16-3.14-13.59,15.56-23.29,33.75-33.88,51.36-3.08,5.08-7.4,12.86-10.83,17.64h0Z"/><path class="cls-6" d="M599.83,567.32c2.6-10.97,14.89-26.61,27.19-26.14-9.24,3.27-15.39,11.03-21.41,18.34-1.93,2.56-4.1,5.07-5.78,7.8h0Z"/><path class="cls-6" d="M671.28,530.18c6.28-.75,12.51-.87,18.62-1.98,1.87-.35,3.95-1.01,4.21-1.76,3.87-5,13.69-5.44,19.46-5.01,2.13,.27,4.42,.55,6.25,1.75-2.08-.35-4.15-.05-6.22,.21-4.91,.77-10.03,1.71-14.46,3.92-.77,.4-1.48,.95-1.67,1.3-.35,.51-.73,.99-1.21,1.37-5.86,3.91-18.44,1.95-24.97,.2h0Z"/><path class="cls-6" d="M592.69,522.41c8.3-8.54,20.46-14.4,32.62-13.23,11.46,1.24,22.94-.5,34.24-3-5.19,2.86-10.88,4.78-16.72,6-5.83,1.26-11.95,1.63-17.96,.98-2.05-.17-4.11-.26-6.17-.07-9.32,.83-17.86,4.62-26.02,9.32h0Z"/><path class="cls-6" d="M643.34,493.18c7.57-6.59,27.94-17.34,37.93-15-3.36,.69-6.28,2.42-9.39,3.78-9.3,4.29-18.55,8.67-28.54,11.22h0Z"/><path class="cls-6" d="M649.32,497.18c11.46-6.65,24.09-10.46,36.94-13.37-9.19,7.39-25.23,12.42-36.94,13.37h0Z"/><path class="cls-6" d="M710.64,485.66c11.74-5.97,38.84-13.12,50.51-5.48-2.13-.52-4.21-.62-6.31-.56-14.53,.67-29.69,4.73-44.2,6.04h0Z"/><path class="cls-6" d="M611.04,562.18c2.01-3.04,4.55-5.67,7.11-8.25,3.3-3.13,6.87-6.36,11.23-8.17,2.77-1.29,6-.21,8.73,.52,6.97,1.98,13.79,4.27,20.7,6.37,6.86,2.11,13.74,4.2,20.77,5.63,3.51,.68,7.08,1.31,10.67,.9-13.53,3.47-39.27-6.05-52.93-10.18-1.53-.46-3.42-1.11-4.9-1.26-1.47-.03-3.13,.66-4.51,1.35-6.15,3.36-11.84,8.13-16.85,13.09h0Z"/><path class="cls-6" d="M665.79,537.6c8.04,1.53,15.75,4.34,23.26,7.53l.34,.15c2.86,3.38,7.73,2.89,11.4,1.15-3.32,3.74-9.51,4.6-13.26,.94l.52,.36c-7.7-2.71-15.28-5.83-22.25-10.12h0Z"/><path class="cls-6" d="M710.64,512.75c8.48-2.92,24.75-3.78,32.29,1.55-10.81-.15-21.65,1.06-32.29-1.55h0Z"/><path class="cls-6" d="M671.28,504.58c26.64-8.25,74.02-16.37,100.54-7.39-12.54-1.71-25.18-.85-37.73,.11-21.03,1.71-41.83,4.86-62.81,7.29h0Z"/><path class="cls-6" d="M679.37,524.68c2.83-2.41,5.69-4.76,8.43-7.22,2.2-2.05,4.71-4.07,6.24-6.63,.18-.38,.55-1.02,.91-1.3,3.33-2.53,7.33-3.41,11.18-4.68,10.83-2.98,22-4.77,33.24-4.9,7.34,.12,15.54,.27,21.78,4.62-10.57-4.36-31.86-.38-43.34,1.63-5.37,1-10.73,2.17-15.95,3.72-1.58,.47-3.85,1.29-4.93,1.93-.67,1.24-2.15,2.78-3.39,3.77-4.38,3.57-9.18,6.49-14.16,9.07h0Z"/><path class="cls-6" d="M349.36,639.18c-3.37,6.81-7.08,13.29-10.41,20.07-3.24,6.73-6.63,13.39-7.59,20.93-2.48-13.22,9.08-31.76,18-41h0Z"/><path class="cls-6" d="M378.36,582.18c-4.09,7.84-8.82,15.7-13,23.47-3.11,5.85-6.32,11.68-8.27,18.02-.62,2.1-1.05,4.26-.74,6.51-4.77-12.5,13.4-38.94,22-48h0Z"/><path class="cls-6" d="M430.64,594.58c-7.31,10.33-15.47,20.32-22.89,30.55-2.96,4.08-5.91,8.2-8.32,12.62-1.18,2.21-2.31,4.49-2.35,7.07-.35-1.25-.25-2.6-.05-3.89,3.45-15,22.06-36.07,33.61-46.34h0Z"/><path class="cls-6" d="M426.36,546.18c-6.9,10.92-16.16,23.54-23.51,34.19-4.52,6.85-9.85,13.41-12.69,21.18,1.74-15.1,25.14-44.27,36.2-55.37h0Z"/><path class="cls-6" d="M412.62,589.16c-7.01,10.63-14.17,21.19-20.02,32.52-1.95,3.76-3.85,7.55-5.57,11.51,2.56-16.46,13.28-33.05,25.59-44.03h0Z"/><path class="cls-6" d="M388.28,652.87c-2.98,7.68-6.45,15.07-9.58,22.64-1.56,3.75-3.09,7.51-4.38,11.34-1.18,3.85-2.5,7.74-1.97,11.83-4.94-11.77,8.48-36.35,15.93-45.81h0Z"/><path class="cls-6" d="M369.26,659.96c-3.85,12.15-10.77,27.71-5.9,40.22-9.08-10.83-1.75-30.34,5.9-40.22h0Z"/><path class="cls-6" d="M372.26,694.87c-4.29,6.65-8.79,13.11-13.01,19.78-2.12,3.31-4.14,6.67-5.99,10.11-1.75,3.47-3.63,7-3.9,10.96-1.32-11.86,14.77-32.49,22.9-40.85h0Z"/><path class="cls-6" d="M334.94,717c-.55,5.12-2.48,10.06-5.58,14.18,.54-5.13,2.49-10.06,5.58-14.18h0Z"/><path class="cls-6" d="M337.67,731.18c.11,5.15-.81,10.31-2.73,15.1-.12-5.15,.82-10.31,2.73-15.1h0Z"/><path class="cls-6" d="M340.34,752.75c.13,5-.77,10.01-2.67,14.64-.14-5,.78-10.01,2.67-14.64h0Z"/><path class="cls-6" d="M349.36,691.47c.13,.06,.1,.24,.05,.35-.93,1.44-2.28,2.6-3.34,3.92-3.58,4.06-5.73,8.87-7.06,14.11-1.14-6.63,2.59-13.45,8.23-16.88,.59-.37,1.19-.7,1.78-1.06,.16-.12,.46-.23,.35-.45h0Z"/><path class="cls-6" d="M343.35,629.36c-2.3-2.16-4.02-4.58-5.87-7.01-1.83-2.19-3.21-4.93-6.13-5.71,1.47-.98,3.57-.33,4.95,.53,4.08,2.74,6.58,7.36,7.05,12.19h0Z"/><path class="cls-6" d="M344.21,619.87c-3.8-1.36-4.93-8.79,0-9.08-1.19,3.27,.43,5.71,0,9.08h0Z"/><path class="cls-6" d="M349.33,621.68c-2.27-9.17-3.4-27.88,2.64-35.58,.6-.61,1.36-1.14,2.19-1.18-1.44,.81-1.87,2.36-2.24,3.81-.37,1.48-.55,3.02-.73,4.56-.29,3.09-.44,6.22-.59,9.37-.31,6.35-.46,12.67-1.27,19.03h0Z"/><path class="cls-6" d="M364.36,593.83c-1.74-5.55,.87-15.69,7.88-15.65-4.73,4.07-5.1,10.33-7.88,15.65h0Z"/><path class="cls-6" d="M377.3,607.17c-.83-7.5,.44-16.35,5.56-22.25,1.79-2.03,5.16-3.26,7.58-1.74-1.31-.01-2.5,.24-3.43,.86-2.91,2.02-4.02,5.55-5.26,8.82-1.6,4.6-2.75,9.43-4.43,14.31h0Z"/><path class="cls-6" d="M348.16,663.9c-1.71-5.04,1.1-10.65,4.9-13.96,1.3-1.13,2.79-2.02,4.41-2.61-.4,.8-.88,1.47-1.32,2.16-3.1,4.66-6.05,9.08-7.99,14.41h0Z"/><path class="cls-6" d="M349.36,686.61c-1.92-8.14,.81-21.05,10-23.43-6.52,6.19-7.42,15.24-10,23.43h0Z"/><path class="cls-6" d="M358.81,738.73c-3.92,7.04-8.03,14.55-7.25,22.87-2.97-8.08,1.59-17.12,7.25-22.87h0Z"/><path class="cls-6" d="M348.96,715.3c-1.51,4.3-3.54,8.37-4.9,12.67-1.45,4.29-1.91,8.64-1.69,13.2-3.74-8.96,.87-18.86,6.58-25.87h0Z"/><path class="cls-6" d="M486.06,554.25c15.73-25.26,54.46-78.92,81.52-89.62,1.26-.42,2.55-.74,3.85-.91-2.55,.65-4.89,1.84-7.1,3.2-10.94,7.11-19.78,16.96-28.56,26.51-16.4,18.2-34.36,41.47-49.71,60.81h0Z"/><path class="cls-6" d="M387.83,572.92c1.44-13.62,8.79-46.38,18.68-55.46,.53-.38,1.13-.72,1.77-.77-.61,.21-1.07,.64-1.47,1.1-1.19,1.43-1.96,3.15-2.7,4.85-1.94,4.61-3.43,9.41-4.93,14.18-3.55,11.27-7.35,25-11.37,36.1h0Z"/><path class="cls-6" d="M431.36,542.18c.98-.97,1.3-2.37,1.85-3.6,1.52-3.88,3.12-7.7,5.29-11.31,2.79-4.42,7.13-10.66,13.11-9.92-2.7,.73-4.49,2.69-6.14,4.78-3.25,4.28-5.72,9.13-8.63,13.71-1.13,1.76-2.29,3.55-3.73,5.1-.5,.49-1.04,1.08-1.76,1.24h0Z"/><path class="cls-6" d="M422.36,583.18c-.44-10.94,3.38-26.65,13-33-6.77,9.98-8.96,21.81-13,33h0Z"/><path class="cls-6" d="M375.26,636.92c1.74-5.57,4.77-13.34,6.69-18.93,1.11-3.14,2.12-6.3,3.5-9.47,1.34-3.38,3.98-6.48,7.94-6.1-3.48,.99-4.89,3.65-5.75,6.91-.87,3.16-1.74,6.45-2.86,9.65-2.27,6.4-5.36,12.55-9.52,17.94h0Z"/><path class="cls-6" d="M401.36,558.18c5.15-14.71,17.93-41.24,30.28-50.56,1.11-.74,2.37-1.44,3.72-1.44-.65,.14-1.22,.47-1.73,.85-3.58,2.79-5.9,6.83-8.41,10.55-2.77,4.41-5.43,8.89-8,13.43-4.63,8.02-10.97,19.43-15.86,27.17h0Z"/><path class="cls-6" d="M414.26,517.34c5.29-12.36,20.23-35.45,34.1-38.16-1.98,.94-3.7,2.19-5.31,3.57-11.15,10.13-19.23,23-28.79,34.59h0Z"/><path class="cls-6" d="M411.33,498.26c2.46-4.53,5.49-8.56,8.49-12.68,2.59-3.65,6.55-8.39,8.54-12.39-.21,8.96-9.99,20.06-17.03,25.08h0Z"/><path class="cls-6" d="M387.45,520.18c1.05-9.24,5.91-23.82,14.9-28-3.51,4.08-5.48,8.87-7.8,13.63-2.06,4.3-4.57,10.33-7.11,14.37h0Z"/><path class="cls-6" d="M368.76,565.77c-2.28-9.39-3.51-36.85,5.67-42.38-1.27,1.35-1.86,3.02-2.31,4.73-2.56,12.05-1.85,25.43-3.37,37.66h0Z"/><path class="cls-6" d="M381.07,563.67c-.21-6.53,.27-29.36,6.38-32.28-1.63,2.31-1.6,5.06-1.89,7.75-.22,2.71-.41,5.47-.74,8.23-.67,5.54-1.68,11.07-3.76,16.3h0Z"/><path class="cls-6" d="M423.45,538.02c-1.2-7.05,2.51-16.51,10.21-17.84-5.23,5.09-6.99,11.34-10.21,17.84h0Z"/><path class="cls-6" d="M428.86,583.18c.36-.55,.56-1.56,.78-2.19,.65-2.19,1.4-4.56,2.26-6.67,3.27-8.01,9.33-19.01,18.88-20.02-5.61,2.84-8.87,8.01-12.13,13.11-2.41,3.89-4.62,7.98-6.99,11.94-.88,1.3-1.56,2.8-2.79,3.83h0Z"/><path class="cls-6" d="M448.36,587.56c.48-14.19,8.35-27.43,18.13-37.38,7.26-6.99,16.15-13.75,24.01-20.11,2.76-2.12,5.22-4.5,7.76-6.88-3.67,5.98-8.81,10.89-13.81,15.71-4.94,4.82-10.21,9.29-15.13,14.1-9.57,9.68-17.35,21.23-20.96,34.56h0Z"/><path class="cls-6" d="M700.78,562.18c8.07-1.42,23.07-2.6,28.45-8.89,1.18-1.57,2.17-3.12,3.22-4.83,.65-1.08,1.55-2.29,2.73-2.89,1.95-.96,3.67-.78,5.59-.65,2.87,.25,5.69,.83,8.47,1.5-3.9,.24-7.84-.15-11.66,.63-1.46,.38-2.09,1.24-2.87,2.74-.91,1.73-1.94,3.63-3.12,5.25-6.12,7.76-21.83,8.16-30.81,7.14h0Z"/><path class="cls-6" d="M742.93,559.18c12.55-1.5,38.26,2.79,38.43,19-3.78-13.65-26.52-16.22-38.43-19h0Z"/><path class="cls-6" d="M757.92,529.1c11.2-2.9,23.43-3.9,34.45,.39,3.57,1.53,7.38,4.19,8.44,8.1-1.28-1.48-2.76-2.55-4.39-3.33-4.95-2.36-10.45-2.88-15.91-3.43-7.52-.74-15.03-.6-22.6-1.73h0Z"/><path class="cls-6" d="M752.3,517.34c6.72-2.85,16.19-5.15,23.24-2.11,4.81,2.81,9.73,5.46,14.86,7.67,1.71,.74,3.41,1.48,5.3,1.78-3.81,.97-7.82-.2-11.5-1.2-3.49-1.08-6.88-2.55-10-4.46-3.03-1.58-7.08-1.59-10.6-1.72-3.69-.06-7.45,.06-11.3,.04h0Z"/><path class="cls-6" d="M700.78,473.33c17.32-6.75,36.74-9.78,55.08-5.63,4.6,1.17,9.07,2.99,13.22,5.29,8.2,4.32,16.15,9.16,23.7,14.52l5.63,4.02c1.89,1.3,3.78,2.59,5.98,3.35-4.6-.8-8.58-3.6-12.65-5.71-9.92-5.47-20.11-11.1-30.49-15.61-19.32-6.94-40.62-4.06-60.47-.23h0Z"/><path class="cls-6" d="M700.78,454.02c12.89,.22,25.84,1.76,38.62,2.14,9.88,.09,19.69,1.82,29.01,5.01,2.94,1.24,6.53,2.25,8.41,5.01-1.15-1.14-2.76-1.56-4.27-2.03-10.82-2.67-22.11-3.78-33.21-3.99-13.15-.52-25.9-2.76-38.56-6.14h0Z"/><path class="cls-6" d="M667.79,451.52c7.13-9.15,21.2-17,32.99-14.34-11.81,3.23-21.88,9.4-32.99,14.34h0Z"/><path class="cls-6" d="M621.58,478.14c5.19-11.63,20.3-31.67,34.72-29.22-12.63,2.88-24.83,20.71-34.72,29.22h0Z"/><path class="cls-6" d="M583.28,448.91c16.55-13.97,41.32-22.37,62.95-19.2,1.48,.25,2.95,.51,4.41,.82-2.93,.3-5.96,.23-8.87,.63-20.5,1.84-39.98,8.94-58.49,17.75h0Z"/><path class="cls-6" d="M542.98,454.02c11.06-15.62,36.37-37.37,56.84-32.68-19.76,1-41.51,20.82-56.84,32.68h0Z"/><path class="cls-6" d="M498.26,470.36c5.95-19.09,21.28-40.79,41.97-44.95,3.05-.5,6.13-.64,9.12-.23-2.99,.49-5.87,1.14-8.62,2.13-19.27,7.33-31.72,26.32-42.48,43.05h0Z"/><path class="cls-6" d="M459.71,470.36c-1.48-7.81,2.87-15.52,8.1-21.03,10.83-11.15,26.27-15.93,40.6-20.83,3.61-1.16,7.28-2.19,10.95-3.12,3.58-.99,7.56-1.28,10.15-4.2-.51,.8-1.05,1.61-1.8,2.26-2.25,1.86-5.14,2.68-7.74,3.81-3.52,1.37-7,2.78-10.49,4.19-8.52,3.59-17.51,6.93-25.79,11.05-10.92,5.64-23.19,14.51-23.97,27.88h0Z"/><path class="cls-6" d="M483.71,461.15c6.54-15.8,21.07-31.36,38.16-35.3,2.53-.5,5.09-.79,7.63-.67-2.43,.76-4.78,1.55-7.03,2.54-15.9,7.09-27.66,20.36-38.75,33.43h0Z"/><path class="cls-6" d="M512.82,467.62c2.6-6.77,17-19.6,24.51-18.71-1.96,.84-4.27,3.43-5.95,4.8-5.74,5.21-11.93,9.86-18.56,13.91h0Z"/><path class="cls-6" d="M518.94,445.77c1.55-.4,3.67-1.42,5.17-2.02,5.11-2.12,10.3-4.02,15.58-5.67,7.1-2.18,14.22-4.1,21.67-4.9-3.24,1.95-6.62,3.51-10.04,4.94-6.86,2.82-13.92,5.06-21.19,6.59-3.66,.64-7.46,1.57-11.19,1.06h0Z"/><path class="cls-6" d="M540.15,461.15c.09,.15,.18,.09,.26,.03,.29-.24,.53-.55,.78-.86,.96-1.23,2.03-2.57,3.09-3.71,4.04-4.21,10.81-9.99,17.08-8.85-6.24,3.98-11.15,9.69-17.98,12.83-.52,.21-3.23,1.5-3.23,.55h0Z"/><path class="cls-6" d="M523.81,523.18c4.77-5.81,8.95-11.89,12.91-18.18,5.86-9.33,12.18-20.26,22.69-25.42,6.49-3.23,14.52-4.53,20.63-8.37,3.06-1.93,5.11-5.32,7.88-7.68-2.25,3.12-3.68,6.66-6.69,9.25-3.06,2.53-6.55,4.16-9.99,5.7-2.33,1.07-5.39,2.18-7.69,3.26-1.6,.69-3.17,1.63-4.63,2.55-5.28,3.49-9.31,8.32-13.05,13.45-6.53,9.05-13.09,18.57-22.05,25.45h0Z"/><path class="cls-6" d="M565.41,523.18c2.49-2.39,4.66-5.32,7.16-7.71,7.5-7.28,16.51-14.5,27.24-15.75-8.97,5.47-16.7,12.07-25.22,18.14-2.91,1.93-5.79,4.29-9.19,5.32h0Z"/><path class="cls-6" d="M542.98,553.97c5.44-9.49,17.57-24.63,28.42-27.46-5.45,3.81-9.6,8.85-14.23,13.53-4.61,4.76-9.08,9.62-14.19,13.92h0Z"/><path class="cls-6" d="M509.94,552.58c5.93-8.61,17.13-19.24,27.39-21.95-9.21,7.04-17.7,15.55-27.39,21.95h0Z"/><path class="cls-6" d="M626.12,524.68c1.09-.3,2.23,.26,3.28,.48,3.06,.86,6.19,1.4,9.34,1.48,6.25,.21,12.53-.9,18.63-2.38,2.06-.48,4.13-.98,6.14-1.6,2.91-.98,6.05-1.62,7.64-4.4,.16-.25,.34-.56,.59-.76,.73-.66,1.78-.45,2.61-.32-.94,.23-2.05,.36-2.19,1.53-1.49,6.48-14.53,9.61-20.29,10.81-7.63,1.41-16.2,.97-22.92-3.35-.77-.43-1.94-1.41-2.85-1.49h0Z"/><path class="cls-6" d="M752.36,581.18c3.13-6.59,10.4-4.41,14.89-.45,5.84,5.02,9.83,11.79,15.22,17.24,2.99,3.07,5.96,6.33,9.89,8.21-4.43-.71-8.17-3.71-11.52-6.52-5.08-4.28-8.92-9.68-13.15-14.68-3.78-4.44-10.32-9.78-15.33-3.79h0Z"/><path class="cls-6" d="M776.82,578.18c4.38,.33,8.72,3.57,9.54,8-3.97-1.73-7.37-4.19-9.54-8h0Z"/><path class="cls-6" d="M774.01,586.18c2.52,1.67,5.38,4.4,7.63,6.38,2.48,2.17,4.58,4.29,7.72,5.62-6.62,1.74-13.68-6.19-15.35-12h0Z"/><path class="cls-6" d="M829.36,561.18c9.09,1.15,27.89,7.77,31.2,17-4.09-4.35-9.9-6.28-15.11-8.97-5.42-2.58-10.85-5.01-16.1-8.03h0Z"/><path class="cls-6" d="M858.36,600.18c9.41,6.91,21.91,16.12,22,29-3.33-8.7-10.04-14.95-16.18-21.69-2.06-2.26-4.26-4.55-5.82-7.31h0Z"/><path class="cls-6" d="M824.82,520.18c3.32,5.02,6.72,9.91,10.43,14.58,3.76,4.53,7.64,8.99,13.4,11-11.57,.52-21.85-15.46-23.83-25.58h0Z"/><path class="cls-6" d="M804.39,524.73c9.45,5.58,22.46,18.35,24.97,29.25-8.51-9.7-18.03-18.26-24.97-29.25h0Z"/><path class="cls-6" d="M768.3,482.05c6.54,.56,12.47,3.93,17.3,8.21,2.86,2.67,5.32,5.78,6.76,9.47-2.26-1.4-4.19-2.94-6.21-4.36-5.77-4.33-12.23-8.7-17.84-13.32h0Z"/><path class="cls-6" d="M776.82,501.41c6.68,2.13,12.43,6.45,16.65,12.01,1.25,1.9,2.94,4.38,2.24,6.77-.97-2.06-2.93-3.16-4.55-4.63-5.19-4.3-10.42-8.52-14.34-14.14h0Z"/><path class="cls-6" d="M789.36,471.9c8.19,5.78,15.59,12.43,23.64,18.28,5.21,4.13,12.65,6.24,15.72,12.61,.44,1.13,.59,2.27,.64,3.4-.48-1.03-.96-2.04-1.61-2.87-2.04-2.51-5.1-3.69-7.97-5.13-1.83-.85-4.35-1.94-6.1-2.93-9.71-5.9-17.82-14.1-24.32-23.36h0Z"/><path class="cls-6" d="M823.79,506.35c5.25,4.37,8.4,9.86,11.91,15.63-6.82-1.16-11.8-9.03-11.91-15.63h0Z"/><path class="cls-6" d="M799.36,504.18c9.28,.99,15.8,12.13,17.52,20.5-6.92-5.96-10.83-14.35-17.52-20.5h0Z"/><path class="cls-6" d="M803.36,557.18c4.5-2.14,11.03,.89,13.52,5-5.21,.69-9.68-1.68-13.52-5h0Z"/><path class="cls-6" d="M800.82,574.36c5.54,.6,10.56,4.15,12.94,9.19-5.55-.58-10.55-4.16-12.94-9.19h0Z"/><path class="cls-6" d="M807.28,595.13c7.33,5.72,13.4,13.11,17.53,21.45-7.35-5.71-13.39-13.12-17.53-21.45h0Z"/><path class="cls-6" d="M810.12,616.58c-6.06,1.01,3.93,10.59,5.62,12.63,3.92,4.17,7.92,8.33,11.57,12.76,2.47,2.95,4.86,5.97,7.05,9.21-3.07-2.36-5.94-4.93-8.73-7.59-5.53-5.4-11.19-10.78-15.53-17.24-1.44-2.45-3.64-5.53-2.69-8.58,.45-1.06,1.7-1.43,2.71-1.2h0Z"/><path class="cls-6" d="M813.75,620.66c9.35,4.79,17.82,11.49,24.61,19.52-9.36-4.78-17.81-11.5-24.61-19.52h0Z"/><path class="cls-6" d="M826.05,598.18c7.9,3.8,14.92,9.5,20.21,16.5-7.91-3.78-14.91-9.52-20.21-16.5h0Z"/><path class="cls-6" d="M858.36,624.75c8.07,1.28,14.57,9.3,14.46,17.42-4.01-6.64-8.54-12.37-14.46-17.42h0Z"/><path class="cls-6" d="M854.77,642.16c8.19-.23,13.07,9.84,12.59,17.02-1.06-1.58-1.9-3.21-2.77-4.85-2.59-4.6-5.18-9.36-9.81-12.17h0Z"/><path class="cls-6" d="M884.73,659.18c1.72,4.17,1.97,9.19-.03,13.28-.34,2.21,1.84,4.54,2.65,6.72-1.41-1.16-2.72-2.38-3.76-4-.4-.64-.77-1.42-.79-2.24-.1-1.25,.64-2.54,.89-3.49,1.01-3.19,.77-6.93,1.03-10.27h0Z"/><path class="cls-6" d="M861.07,724.49c2.49,6.07,4.03,12.52,4.52,19.06-2.5-6.07-4.03-12.52-4.52-19.06h0Z"/><path class="cls-6" d="M872.82,747.3c2.51,4.11,3.89,9.14,2.54,13.88-.58-2.32-.72-4.61-1.29-6.9-.5-2.3-1.11-4.59-1.25-6.98h0Z"/><path class="cls-6" d="M867.36,761.18c.03,.17,.07,.07,.13-.02,.63-1.17,1.33-.72,1.66,.32,.68,2.37,.6,4.85,.22,7.26-.46-2.37-.41-4.76-.78-7.1-.19-.96-.37-1.01-1.01-.4-.11,.1-.26,.13-.21-.06h0Z"/><path class="cls-6" d="M877.36,737.18c1.36,3.38,1.95,6.92,2.99,10.39,.19,.61,.44,1.44,.12,2.06-.31,.62-.69,1.07-1.1,1.55,.11-.61,.33-1.22,.4-1.76,.04-.27-.02-.44-.11-.66-1.91-3.52-2.6-7.61-2.28-11.59h0Z"/><path class="cls-6" d="M869.36,721.43c1.02,2.96,1.64,6.01,2.8,8.88,.52,1.45,1.23,2.68,1.98,4.17,.43,.78,.44,1.87,.04,2.64-.36,.77-.84,1.4-1.36,2.01,.38-1.36,1.23-2.85,.29-4.11-.4-.6-.88-1.26-1.29-1.97-1.98-3.51-2.64-7.64-2.46-11.63h0Z"/><path class="cls-6" d="M875.36,707.47c3.78,4.16,8.78,13.04,7,18.71-.33-2.93-2.27-6.58-3.35-9.3-1.33-3.1-2.68-6.14-3.65-9.41h0Z"/><path class="cls-6" d="M863.33,697.94c4.96,4.6,12.49,14.45,12.03,21.45-1.24-3.95-3.76-7.2-5.82-10.72-2.17-3.52-4.37-6.99-6.21-10.72h0Z"/><path class="cls-6" d="M853.36,693.18c4.28,2.19,5.6,9.9,5,14.29-1.17-2.34-1.84-4.77-2.56-7.23-.67-2.1-1.26-5.18-2.44-7.05h0Z"/><path class="cls-6" d="M872.36,686.18c7.13,4.29,12.29,12.84,11.34,21.29-1.92-8.03-6.19-14.92-11.34-21.29h0Z"/><path class="cls-6" d="M880.36,684.32c.65,.13,1.27-.17,1.96,.06,.73,.21,1.32,.73,1.77,1.29,1.05,1.42,1.41,2.98,1.72,4.58,.3,2.19,.29,4.4-.27,6.57-.86-2.04-1.37-4.94-1.86-7.07-.5-1.82-.59-4.08-2.48-4.9-.27-.13-.64-.24-.83-.53h0Z"/><path class="cls-6" d="M869.36,778.96c4.01,4.29,4.92,10.68,4.66,16.34-.79-5.61-1.54-11.48-4.66-16.34h0Z"/><path class="cls-6" d="M880.19,773.51c1.19,2.99,4.69,8.22,2.26,11.23,.87-1.81-.04-3.79-.57-5.57-.52-1.67-1.56-3.92-1.69-5.66h0Z"/><path class="cls-6" d="M883.7,758.53c1.24,2.3,2.18,4.74,2.94,7.23,.64,2.48,1.46,5.2,.72,7.74,.14-2.59-.79-5.06-1.44-7.53-.65-2.2-1.61-5.26-2.22-7.45h0Z"/><path class="cls-6" d="M885.53,740.49c4.08,3.1,3.97,9.47,1.97,13.75-.16-4.66,.25-9.47-1.97-13.75h0Z"/><path class="cls-6" d="M883.7,732.32c1.91-.27,3.71,1.27,4.27,3.01,.2,.58,.27,1.22,.15,1.85-.48-.44-.82-.88-1.18-1.29-1.06-1.25-2-2.28-3.24-3.57h0Z"/><path class="cls-6" d="M885.53,714.96c2.8,2.44,4.67,5.83,5.31,9.49,.17,1.22,.19,2.63-.48,3.74-.17-1.24-.59-2.26-1.04-3.33-1.33-3.19-2.99-6.5-3.79-9.89h0Z"/><path class="cls-6" d="M841.36,665.18c3.17,2.41,5.82,5.35,8.23,8.49,2.27,3.19,4.7,6.64,5.19,10.65-4.05-6.57-9.62-12.4-13.41-19.14h0Z"/><path class="cls-6" d="M853.36,653.34c3.11,5.84,5.27,12.07,7.43,18.29,.65,1.78,1.15,3.64,2,5.33,.13,.22,.26,.5,.54,.54-.3,.06-.56-.18-.77-.35-.63-.58-1.11-1.3-1.58-2-3.93-6.68-6.39-14.18-7.62-21.82h0Z"/><path class="cls-6" d="M831.28,578.96c.58,.23,1.57,.23,2.19,.32,2.17,.2,4.52,.44,6.65,.8,6.47,1.04,21.92,4.56,23.19,12.1-1.54-2.58-4.41-3.52-7.03-4.6-2.69-1-5.47-1.84-8.27-2.68-4.21-1.26-8.5-2.48-12.66-3.99-1.38-.59-2.91-.97-4.08-1.96h0Z"/><path class="cls-6" d="M829.36,591.96c7.37-1.76,23.91,5.87,24,14.48-.61-1.11-1.34-2.02-2.19-2.82-4.36-3.96-9.87-6.34-15.13-8.94-2.2-.93-4.33-2.26-6.68-2.72h0Z"/><path class="cls-6" d="M762.14,550.19c.51-2.13,1.81-5.64,4.46-5.68,3.58,.67,6.73,2.92,9.93,4.43,.23,.08,.19,.12,.35,.15,1.59,.11,3.16-.27,4.8-.35-1.38,1.15-2.9,2.17-4.71,2.52-.31,.05-.83,0-1.05-.05-2.98-.66-5.43-2.05-8.05-3.42l-1.59-.83c-1.56,.6-2.78,2.13-4.13,3.23h0Z"/><path class="cls-6" d="M735.89,534.53c2.66-4.06,8.19-5.45,12.68-4.09,1.52,.44,2.93,1.31,4.02,2.54-1.65,.34-3.02,.4-4.37,.59-4.1,.38-8.12,1-12.32,.97h0Z"/><path class="cls-6" d="M749.24,541.18c-.22,.16-.45,.33-.62,.52-.04,.02-.06,.15-.04,.03-.07-.12-.01-.05,.04-.08,1.22-.26,3.74-1.38,4.95-1.83,10.21-4.8,21.88-4.75,32.87-3.79,4.55,.41,9.05,1.09,13.55,2.02,3.55,3.11,7.15,6.24,10.13,9.92-3.78-2.52-7.81-4.98-11.6-7.5l.64,.27c-4.31-.33-8.68-.59-13-.84-6.43-.35-12.97-.61-19.4-.37-1.85,.1-4.54,.26-6.34,.59-3.66,.57-7.56,1.75-11.36,1.93-.25-.03-.63,.07-.77-.23,0-.26,.13-.24,.18-.3,.26-.16,.52-.24,.78-.33h0Z"/><path class="cls-6" d="M841.13,549.89c5.79,.97,15.58,7.79,14.32,14.41-1.07-1.47-2.31-2.33-3.65-3.44-3.96-3.25-8.06-6.36-10.66-10.98h0Z"/><path class="cls-6" d="M787.71,561.18c3.42-2.7,8.23-2.72,11.65,0-3.41,2.72-8.23,2.7-11.65,0h0Z"/><path class="cls-6" d="M786.26,565.51c5.95,3.26,10.85,8.53,13.09,14.98-6.08-2.52-11.57-8.53-13.09-14.98h0Z"/><path class="cls-6" d="M800.82,588.66c3.81-3.25,9.87-1.86,13.3,1.31,1.17,1.07,2.12,2.35,2.76,3.8-.78-.26-1.44-.61-2.11-.93-4.5-2.18-8.84-4-13.94-4.18h0Z"/><path class="cls-6" d="M841.36,623.61c5.88-1.85,16.03,2.53,13.42,9.84-1.93-5.94-8.48-7.1-13.42-9.84h0Z"/><path class="cls-6" d="M878.61,639.18c4.45,1.29,9.71,6.56,8.87,11.49-3.3-3.72-6.93-6.79-8.87-11.49h0Z"/><path class="cls-6" d="M868.36,669.18c4.46,1.51,8.8,5.2,9.67,10-3.21-3.28-6.87-6.26-9.67-10h0Z"/><path class="cls-6" d="M891.86,742.68c1.53,5.49,2.05,11.24,1.53,16.91-1.53-5.49-2.05-11.24-1.53-16.91h0Z"/><path class="cls-6" d="M889.47,700.66c3.05,4.18,4.94,9.15,5.42,14.3-3.06-4.17-4.93-9.15-5.42-14.3h0Z"/><path class="cls-6" d="M887.47,684.32c3.19,2.7,5.42,6.45,6.24,10.55-3.2-2.7-5.41-6.46-6.24-10.55h0Z"/><path class="cls-6" d="M659.55,433.18c3.45-1.29,6.43-3.54,9.7-5.23,3.23-1.78,6.52-3.47,9.94-4.95,4.49-1.94,18.54-7.53,21.59-1.82-2.7-2.13-7.13,.25-10,1.2-3.33,1.34-6.64,2.84-9.99,4.29-5.06,2.17-10.22,4.39-15.59,5.83-1.83,.41-3.75,.99-5.65,.69h0Z"/><path class="cls-6" d="M715.79,439.48c12.39-5.1,32.08-6.83,42.13,3.69-13.52-5.49-27.92-3.13-42.13-3.69h0Z"/><path class="cls-6" d="M613.42,430.13c11.16-8.18,29.19-14.26,42.89-10.49-3.77,.56-7.33,1.24-10.89,2.02-10.4,2.34-21.58,6.08-32,8.47h0Z"/><path class="cls-6" d="M768.3,451.52c6.8,2.42,12.59,6.54,18.29,10.81l2.77,2.11c.95,.68,1.82,1.47,3,1.74-2.34,.95-5.12-.32-7.34-1.13-6.63-3.01-12.54-7.51-16.72-13.53h0Z"/><path class="cls-6" d="M561.36,419.49c4.22-6.16,12.06-9.32,19.38-9.07,2.47,.06,4.94,.67,7.17,1.73-3.61,.8-6.78,1.29-10.21,2.14-5.14,1.24-11.29,3.43-16.34,5.2h0Z"/><path class="cls-6" d="M613.42,415.68c6.25-4.7,13.75-6.73,21.44-7.45-4.79,5.48-14.33,8.21-21.44,7.45h0Z"/><path class="cls-6" d="M357.36,770.45c-.19,3.77-1.16,7.65-1.98,11.29-.2,1.22-.72,2.46-.44,3.69-2.11-3.14,.64-11.83,2.42-14.98h0Z"/><path class="cls-6" d="M346.86,765c-1.07,4.39-2.6,8.45-1.5,12.94-3.22-3.69-1.51-9.64,1.5-12.94h0Z"/><path class="cls-6" d="M345.35,792.92c-.12,4.67-.77,9.15-2.06,13.62-.79-4.56-.05-9.5,2.06-13.62h0Z"/><path class="cls-6" d="M355.99,799.73c-.49,4.6-1.42,9.07-2.03,13.63-.07,1.38-.63,3.21,.19,4.41-2.63-2.63,.52-14.67,1.84-18.04h0Z"/><path class="cls-6" d="M346.86,819.47c-.4,3.91-1.99,7.67-1.27,11.57-2.12-3.16-.41-8.49,1.27-11.57h0Z"/><path class="cls-6" d="M354.74,832.75c-.9,3.32-2.2,6.41-3.2,9.66-.28,1.07-.67,2.14-.48,3.27-1.56-3.39,1.72-10.01,3.68-12.94h0Z"/><path class="cls-6" d="M361.3,788.15c1.47,3.21,3.7,9.57-.51,11.57,1.26-1.69,1.02-3.57,.85-5.51-.15-1.82-.69-4.24-.35-6.07h0Z"/><path class="cls-6" d="M365.24,721.43c-1.23,1.76-2.67,4.2-3.82,6.01-1.25,2.05-2.66,3.93-4.07,5.91,.05-4.43,3.64-10.35,7.88-11.91h0Z"/><path class="cls-6" d="M325.75,750.16c1.4,4.18,3.16,8.3,3.76,12.73,.14,1.45,.53,3.13-.15,4.49,.1-.73-.19-1.43-.36-2.13-.62-2.11-1.29-4.19-1.87-6.32-.64-2.86-1.7-5.82-1.38-8.77h0Z"/><path class="cls-6" d="M334.94,774.53c-.07,1.2,.09,2.68,.14,3.86,.05,1.33,.13,2.61-.14,3.97-1.59-2.19-2.12-5.84,0-7.83h0Z"/><path class="cls-6" d="M339,783.73c-.76,3.36-2.12,6.32-2.95,9.57-.21,1.03-.5,2.12,.25,3.03-3.68-1.92,.52-10.5,2.7-12.6h0Z"/><path class="cls-6" d="M323.71,728.24c-.25,.76-.11,1.84-.15,2.63-.04,1.76-.19,3.51-.61,5.24-.22,.87-.48,1.75-.94,2.62-.7-1.78-.78-3.61-.6-5.47,.27-1.69,.64-4.13,2.3-5.03h0Z"/><path class="cls-6" d="M329.49,701.18c.1,5.49-1.19,10.97-3.76,15.82-.11-5.49,1.2-10.97,3.76-15.82h0Z"/><path class="cls-6" d="M325.73,685c-.35,2.32-1.19,4.01-2.39,5.88-.38,.57-.74,1.16-1.34,1.95-.66-.7-.94-1.62-.96-2.5,0-2.61,1.97-5.13,4.68-5.33h0Z"/><path class="cls-6" d="M321.99,700.66c-.92,2.45-2.12,4.58-3.11,6.75-.86,2.13-2.23,4.29-.81,6.52-5.06-2.46,.55-11.39,3.92-13.28h0Z"/><path class="cls-6" d="M331.32,649.94c-1.26,3.17-3.02,5.89-4.81,8.68-1.63,2.75-3.85,5.14-4.52,8.34-2.83-5.61,4.5-14.51,9.33-17.02h0Z"/><path class="cls-6" d="M333.24,635.3c-2.36,3.88-6.17,6.09-9.33,9.12-.2,.22-.33,.47-.55,.76-.11-.29-.23-.65-.24-1,.27-4.72,5.72-8.44,10.13-8.88h0Z"/><path class="cls-6" d="M360.79,583.18c-4.23-3.37-5.02-9.71-2.98-14.51,.31-.68,.64-1.35,1-1.99-.15,.73-.38,1.43-.53,2.14-1.19,4.89-.58,10.26,2.52,14.36h0Z"/><path class="cls-6" d="M876.36,802.18c1.58,2.78,3.12,7.15,1,10,1.07-3.32-.4-6.69-1-10h0Z"/><path class="cls-6" d="M883.03,795.9c1,1.91,1.54,4.09,1.42,6.25-.05,.72-.24,1.51-.75,2.04,.6-2.77-.53-5.49-.67-8.3h0Z"/><path class="cls-6" d="M878.05,819.51c.64,2.67,1.19,5.99,0,8.55,.17-2.74-.39-5.69,0-8.55h0Z"/><path class="cls-6" d="M883.7,821.94c.41,2.19,.39,4.4,.06,6.58-.14,.71-.23,1.5-.73,2.1,.14-.34,.12-.71,.13-1.06,.04-2.55,.03-5.09,.54-7.62h0Z"/><path class="cls-6" d="M880.19,834.7c.57,3.1-.99,6.04-1.84,8.94-.18-3.04,1.39-5.97,1.84-8.94h0Z"/><path class="cls-6" d="M884.36,809.18c.97,1.7,1.24,4.1,0,5.73,.21-2-.06-3.73,0-5.73h0Z"/><path class="cls-6" d="M889.36,781.18c.9,3.57,1.03,7.78-1,11,1.04-3.62,.86-7.27,1-11h0Z"/><path class="cls-6" d="M890.56,761.18c.61,2.89,1.55,5.79,1.26,8.79-.09,.41-.12,.91-.46,1.21,.31-.78,0-1.64-.07-2.45-.32-2.43-1.04-5.1-.73-7.55h0Z"/><path class="cls-6" d="M590.4,594.18c1.93-7.31,6.01-18.07,13.04-21.84,4.68-1.64,9.42-3.27,14.01-5.34,3-1.35,6.02-2.69,8.76-4.52,.88-.63,1.81-1.28,2.26-2.31-1.56,5.95-16.64,12.58-22.39,14.39-4.07,1.06-6.44,4.97-8.84,8.22-2.44,3.63-4.63,7.49-6.84,11.39h0Z"/><path class="cls-6" d="M628.48,579.63c1.33-5.87,4.3-15.23,10.7-17.33,9.37-2.2,18.98-.31,28.39,.18,3.96,.2,7.95,.27,11.9-.19,1.3-.2,2.68-.3,3.82-.99-2.1,1.77-5.02,2.17-7.63,2.75-7.99,1.44-16.27,.53-24.23,.27-2.65-.13-5.26-.15-7.84,.05-2.48,.24-4.76,.24-6.71,2.09-3.75,3.49-6.16,8.53-8.41,13.17h0Z"/><path class="cls-6" d="M674.36,576.73c4.26-8.23,16.06-9.62,24-6.55-1.11,.25-2.19,.36-3.25,.48-7.24,.96-14.54,1.87-20.75,6.06h0Z"/><path class="cls-6" d="M703.71,581.18c.07-.08-.1-.19-.15-.29-.69-.79-.83-1.95-.37-2.91,2.59-4.4,9.76-5.06,14.32-5.15,2.01,.01,4.03,.22,6.03,.72-3.78,1.39-7.63,1.99-11.49,2.77-1.87,.37-3.73,.73-5.43,1.3-1.2,.46-2.44,.87-2.81,2.14-.11,.38-.06,.84-.03,1.25,0,.05,.02,.19-.08,.18h0Z"/><path class="cls-6" d="M546.52,570.88c1.84-9.39,9.27-26.01,18.89-29.28-4.37,3.89-6.91,9.2-9.9,14.14-2.94,5.09-5.69,10.22-9,15.14h0Z"/><path class="cls-6" d="M570.75,579.49c.59-5.84,3.39-11.42,7.73-15.38,1.49-1.29,3.21-2.4,5.14-2.93-1.23,1.57-2.33,3.02-3.39,4.51-3.17,4.39-5.98,9.59-9.47,13.8h0Z"/><path class="cls-6" d="M732.32,592.77c.1-3.55,2.85-7.51,6.78-7.76,8.78-.83,20.81,10.91,26.3,17.17,3.05,3.54,5.82,7.35,7.96,11.5-6.26-6.76-12.74-13.21-19.93-18.93-6.14-4.94-16.83-13.58-21.11-1.98h0Z"/><path class="cls-6" d="M771.82,600.18c6.71,5.73,12.73,12.23,17.54,19.69-5.96-3.18-10.55-8.3-14.41-13.73-1.18-1.88-2.58-3.79-3.13-5.96h0Z"/><path class="cls-6" d="M477.76,572.93c2.77-6.47,7.21-12.14,12.79-16.43,1.89-1.24,4.34-3.02,6.71-2.27-2.24,.55-3.58,2.52-5.16,4.04-4.52,4.9-9.14,10.46-14.35,14.65h0Z"/><path class="cls-6" d="M519.45,565.9c-3.04-8.14,2.15-20.45,12.26-17.7-2.03,.65-3.84,1.35-5.27,2.47-4.66,3.62-5.52,9.75-6.98,15.23h0Z"/><path class="cls-6" d="M726.78,567.32c3.37-1.98,7.13-3.18,11.02-3.5,3.88-.32,7.86,.09,11.44,1.74-1.96,.4-3.82,.54-5.68,.75-2.75,.26-8.28,.73-11.03,.93-1.92,.09-3.81,.32-5.75,.07h0Z"/><path class="cls-15" d="M707.47,826.28c.15,11.07,2.53,15.72,19.53,16.72,1.03,.12,3.18,.09,4.86,.05,1.3-.03,2.59-.15,3.88-.34,5.62-.85,15.53-2.03,18.57-12.37,4.27-14.52-18.15-14.52-21.31-14.33-.28,.02-1.72,0-2,0-3.27-.1-23.67-.24-23.53,10.28"/><path class="cls-16" d="M734.17,822.21c-1.31-.54-7.84-3.23-10.27,2.66s4.1,8.59,4.1,8.59c0,0,5.81,2.4,8.24-3.5s-2.07-7.75-2.07-7.75Z"/><path d="M670.35,843.62c1.85-5.8,5.81-10.76,10.36-14.73,14.19-11.95,33.75-14.49,51.71-13.94,8.96-.27,18.44,.87,27.2,3.43,8.78,2.55,17.25,6.76,23.88,13.11-6.85-6.07-15.3-10.05-24.07-12.45-8.78-2.35-17.97-3.46-27.04-3.15-22.63-.76-52.35,4.31-62.04,27.72h0Z"/><path d="M568.36,788.18c-2.46,2.73-6.36,6.71-8.92,9.41-2.54,2.75-5.32,5.37-7.33,8.54-.25,.46-.52,.95-.49,1.5-.1-5.04,12.59-16.28,16.73-19.46h0Z"/><path class="cls-8" d="M377.86,787.68c16-5,56,2,56,2,6,1,93.09-3.22,97-4,3.4-.68,10.51-8.77,14.7-13.87,.8-.98-.13-2.4-1.35-2.05-20.61,5.96-94.02,6.88-97.25,6.92-.07,0-.15,0-.22-.02-53.95-9.17-69.25,11.49-69.25,11.49"/></g><g id="Layer_10"><g><path class="cls-17" d="M430,1415s11-14,14.32-33l10.3,79.75s-38.62-7.75-37.62-33.75"/><path class="cls-17" d="M503,1478s7.73-48.39,13.85-67.3l35.15,76.3s-15-2-41.27-7.32"/><path class="cls-17" d="M812,1503s22.37-49.49,21.34-72.38c-.04-.86,1.03-1.17,1.39-.39l21.85,46.63c.16,.35,.08,.77-.21,1.01-2.81,2.34-18.67,13.16-43.38,24.14"/><path class="cls-17" d="M709,1508s40.81-31.74,44.69-51.35l4.08,56.74s-11.23-2.23-28.58-2.23"/><path class="cls-17" d="M613.77,1494.37s23.68-32.68,27.56-52.29l24.5,57.85s-29.6-4.45-45.93-5.56"/></g><path class="cls-4" d="M583.88,1607.27c.07-.63-.75-.94-1.11-.43-3.53,5.05-10.1,19.4,17.77,31.36,33.79,14.51-.18-8.3-1.5-9.18-.03-.02-.05-.03-.08-.04-.91-.41-16.6-7.67-15.07-21.71Z"/><path class="cls-12" d="M417.33,1427.74s22.67-16.74,28.67-33.74l10.09,71.68s-47.33-12.21-38.76-37.94"/><path class="cls-12" d="M503,1478s11-43,17-60l33.26,69.64s-12.76-1.88-39.26-7.64"/><path class="cls-12" d="M811.75,1502.79s25.22-46.31,24.21-66.89c-.04-.78,1.01-1.05,1.37-.35l21.4,41.92c.16,.31,.08,.69-.2,.91-2.75,2.1-17.31,12.77-41.52,22.63"/><path class="cls-12" d="M709,1508s41.2-28.38,45-46l4,51s-11-2-28-2"/><path class="cls-12" d="M614,1495s22.2-29.38,26-47l24,52s-29-4-45-5"/><path d="M396.66,657.37c-7.86-6.84-17.04-12.51-26.4-17.13-12.18-5.97-25.31-9.96-38.76-11.74,16.5,1.91,32.58,7.29,47.08,15.36,6.61,3.71,12.95,7.83,18.76,12.77l-.67,.74h0Z"/></g></svg>