<?xml version="1.0" encoding="UTF-8"?><svg id="Layer_1" xmlns="http://www.w3.org/2000/svg" width="72" height="72" xmlns:xlink="http://www.w3.org/1999/xlink" viewBox="0 0 72 72"><defs><style>.cls-1{fill:#fff;}.cls-2{fill:url(#linear-gradient);}</style><linearGradient id="linear-gradient" x1="0" y1="72" x2="1" y2="71" gradientTransform="translate(0 5184) scale(72 -72)" gradientUnits="userSpaceOnUse"><stop offset="0" stop-color="#04adbf"/><stop offset="1" stop-color="#0b8cbf"/></linearGradient></defs><circle class="cls-2" cx="36" cy="36" r="36"/><path class="cls-1" d="M16.07,14.59H55.93c1.42,.01,2.56,1.17,2.57,2.58v27.4c0,.52-.15,1.03-.45,1.47-.05,.14-.14,.26-.24,.37-.07,.07-.15,.13-.24,.17-.46,.39-1.05,.6-1.65,.6H16.07c-1.41-.01-2.55-1.15-2.57-2.57V17.18c0-1.42,1.15-2.57,2.57-2.58Zm-.11,28.9l13.48-14.01-13.48-11.39v25.4Zm15.51-12.26l-14.4,13.95H54.81l-13.76-13.95-4.03,3.38h0c-.37,.3-.9,.3-1.26,0l-4.29-3.38Zm11.58-1.77l13,14.15V17.97l-13,11.49Zm-25.82-12.88l19.12,15.5,18.28-15.5H17.22Z"/><path class="cls-1" d="M34.77,49.83h2.46v16.26c0,.6-.49,1.09-1.09,1.09h-.27c-.6,0-1.09-.49-1.09-1.09v-16.26h0Z"/><path class="cls-1" d="M28.02,49.83h2.46v8.32c0,.6-.49,1.09-1.09,1.09h-.27c-.6,0-1.09-.49-1.09-1.09v-8.32h0Z"/><path class="cls-1" d="M22.4,49.83h2.46v13.17c0,.6-.49,1.09-1.09,1.09h-.27c-.6,0-1.09-.49-1.09-1.09v-13.17h0Z"/><path class="cls-1" d="M16.77,49.83h2.46v4.21c0,.6-.49,1.09-1.09,1.09h-.27c-.6,0-1.09-.49-1.09-1.09v-4.21h0Z"/><path class="cls-1" d="M41.52,49.83h2.46v5.71c0,.6-.49,1.09-1.09,1.09h-.27c-.6,0-1.09-.49-1.09-1.09v-5.71h0Z"/><path class="cls-1" d="M47.15,49.83h2.46v9.51c0,.6-.49,1.09-1.09,1.09h-.27c-.6,0-1.09-.49-1.09-1.09v-9.51h0Z"/><path class="cls-1" d="M52.77,49.83h2.46v2.67c0,.6-.49,1.09-1.09,1.09h-.27c-.6,0-1.09-.49-1.09-1.09v-2.67h0Z"/></svg>