<?xml version="1.0" encoding="UTF-8"?><svg id="Layer_1" xmlns="http://www.w3.org/2000/svg" width="20" height="20" viewBox="0 0 20 20"><defs><style>.cls-1{fill:#fff;}</style></defs><path class="cls-1" d="M18.4,0H1.71C.8,0,0,.66,0,1.56V18.29c0,.91,.8,1.71,1.71,1.71H18.4c.92,0,1.6-.81,1.6-1.71V1.56c0-.9-.69-1.56-1.6-1.56ZM6.2,16.67H3.33V7.76h2.87v8.91Zm-1.33-10.26h-.02c-.92,0-1.51-.68-1.51-1.54s.61-1.54,1.55-1.54,1.51,.66,1.53,1.54c0,.85-.59,1.54-1.55,1.54Zm11.81,10.26h-2.87v-4.87c0-1.17-.42-1.96-1.45-1.96-.79,0-1.26,.54-1.47,1.06-.08,.19-.1,.44-.1,.7v5.07h-2.87V7.76h2.87v1.24c.42-.59,1.07-1.45,2.58-1.45,1.88,0,3.3,1.24,3.3,3.91v5.2Z"/></svg>