<?xml version="1.0" encoding="UTF-8"?><svg id="Layer_1" xmlns="http://www.w3.org/2000/svg" width="72" height="72" xmlns:xlink="http://www.w3.org/1999/xlink" viewBox="0 0 72 72"><defs><style>.cls-1{fill:#fff;}.cls-2{fill:url(#linear-gradient);}</style><linearGradient id="linear-gradient" x1="0" y1="72" x2="1" y2="71" gradientTransform="translate(0 5184) scale(72 -72)" gradientUnits="userSpaceOnUse"><stop offset="0" stop-color="#04adbf"/><stop offset="1" stop-color="#0b8cbf"/></linearGradient></defs><circle class="cls-2" cx="36" cy="36" r="36"/><path class="cls-1" d="M56.48,48.9c-3.41,3.58-8.09,5.53-12.94,5.53-4.94-.09-9.62-2.13-13.03-5.71l-8.34-8.26c-1.02-1.11-1.02-2.81,.09-3.83,.51-.51,1.19-.77,1.87-.77,.77,0,1.45,.26,1.96,.85l8.26,8.26c2.38,2.55,5.71,4,9.2,4.09,3.49,0,6.73-1.45,9.11-3.92,2.47-2.47,3.83-5.88,3.83-9.37,0-7.15-5.79-12.94-12.94-12.94-2.55-.09-5.11,.6-7.15,2.13,0,0-.6-.43-1.28-.85-.43-.26-.85-.51-1.19-.68-.43-.26-1.53-.77-2.21-1.02-.17-.09-.34-.17-.51-.17h0c3.32-3.15,7.75-4.85,12.35-4.77,10.13,0,18.39,8.26,18.39,18.39-.09,4.85-2.04,9.54-5.45,13.03m-31.08,5.45c-8.34,0-15.16-6.81-15.16-15.16s6.73-15.07,15.07-15.07c3.75,0,7.32,1.36,10.05,3.83l.09,.09,6.3,6.39c.51,.51,.77,1.19,.77,1.96,0,.68-.34,1.36-.85,1.87-.51,.51-1.19,.77-1.87,.77-.77,0-1.45-.26-1.96-.85l-6.22-6.39c-1.79-1.53-4-2.3-6.3-2.3-5.36,0-9.62,4.34-9.71,9.62,.17,5.36,4.51,9.71,9.96,9.79h1.28c1.79,2.47,6.73,5.45,6.73,5.45h-8.17ZM58.61,21.23c-4-4.34-9.62-6.73-15.5-6.73s-11.24,2.3-15.33,6.47c-.68-.09-1.36-.09-2.04-.09-10.05,0-18.14,8.17-18.22,18.22,0,4.77,1.87,9.28,5.11,12.69,3.41,3.66,8.09,5.71,13.11,5.71h17.37c11.84-.09,21.37-9.71,21.37-21.54,0-5.53-2.13-10.73-5.88-14.73"/></svg>