<?xml version="1.0" encoding="UTF-8"?><svg id="Layer_1" xmlns="http://www.w3.org/2000/svg" width="72" height="72" xmlns:xlink="http://www.w3.org/1999/xlink" viewBox="0 0 72 72"><defs><style>.cls-1,.cls-2{fill:#fff;}.cls-2{stroke:#fff;stroke-miterlimit:10;}.cls-3{fill:url(#linear-gradient);}</style><linearGradient id="linear-gradient" x1="0" y1="72" x2="1" y2="71" gradientTransform="translate(0 5184) scale(72 -72)" gradientUnits="userSpaceOnUse"><stop offset="0" stop-color="#04adbf"/><stop offset="1" stop-color="#0b8cbf"/></linearGradient></defs><circle class="cls-3" cx="36" cy="36" r="36"/><path class="cls-1" d="M36,9.75c14.47,0,26.25,11.78,26.25,26.25s-11.78,26.25-26.25,26.25-26.25-11.78-26.25-26.25S21.53,9.75,36,9.75m0-3.75c-16.57,0-30,13.43-30,30s13.43,30,30,30,30-13.43,30-30S52.57,6,36,6h0Z"/><path class="cls-2" d="M20.5,23.33h31.01c1.1,.01,1.99,.91,2,2.01v21.31c0,.41-.12,.8-.35,1.14-.04,.11-.11,.2-.19,.29-.06,.05-.12,.1-.19,.13-.36,.3-.82,.47-1.29,.47H20.5c-1.1-.01-1.98-.9-2-2V25.34c0-1.1,.89-2,2-2.01Zm-.09,22.47l10.48-10.9-10.48-8.86v19.75Zm12.06-9.54l-11.2,10.85h29.36l-10.7-10.85-3.14,2.63h0c-.29,.24-.7,.24-.98,0l-3.34-2.63Zm9.01-1.38l10.11,11V25.95l-10.11,8.94Zm-20.09-10.02l14.87,12.06,14.22-12.06H21.4Z"/></svg>