<?xml version="1.0" encoding="utf-8"?>
<!-- Generator: Adobe Illustrator 26.3.1, SVG Export Plug-In . SVG Version: 6.00 Build 0)  -->
<svg version="1.1" id="Layer_1" xmlns="http://www.w3.org/2000/svg" xmlns:xlink="http://www.w3.org/1999/xlink" x="0px" y="0px"
	 viewBox="0 0 72 72" style="enable-background:new 0 0 72 72;" xml:space="preserve">
<style type="text/css">
	.st0{fill-rule:evenodd;clip-rule:evenodd;fill:url(#SVGID_1_);}
	.st1{fill-rule:evenodd;clip-rule:evenodd;fill:url(#SVGID_00000052802764834166792720000007838993258286108309_);}
	.st2{fill:#FFFFFF;}
</style>
<g>
	
		<linearGradient id="SVGID_1_" gradientUnits="userSpaceOnUse" x1="0" y1="72" x2="0.9958" y2="71.0042" gradientTransform="matrix(72 0 0 -72 0 5184)">
		<stop  offset="0" style="stop-color:#04ADBF"/>
		<stop  offset="1" style="stop-color:#0B8CBF"/>
	</linearGradient>
	<circle class="st0" cx="36" cy="36" r="36"/>
	
		<linearGradient id="SVGID_00000150083258490967556440000016123842560441769871_" gradientUnits="userSpaceOnUse" x1="0" y1="72" x2="0" y2="72" gradientTransform="matrix(72 0 0 -72 0 5184)">
		<stop  offset="0" style="stop-color:#33D35E"/>
		<stop  offset="1" style="stop-color:#2AB6D9"/>
	</linearGradient>
	<path style="fill-rule:evenodd;clip-rule:evenodd;fill:url(#SVGID_00000150083258490967556440000016123842560441769871_);" d="M0,0
		"/>
</g>
<path class="st2" d="M56.5,48.9c-3.4,3.6-8.1,5.5-12.9,5.5c-4.9-0.1-9.6-2.1-13-5.7l-8.3-8.3c-1-1.1-1-2.8,0.1-3.8
	c0.5-0.5,1.2-0.8,1.9-0.8c0.8,0,1.4,0.3,2,0.9l8.3,8.3c2.4,2.6,5.7,4,9.2,4.1c3.5,0,6.7-1.4,9.1-3.9c2.5-2.5,3.8-5.9,3.8-9.4
	c0-7.2-5.8-12.9-12.9-12.9c-2.6-0.1-5.1,0.6-7.2,2.1c0,0-0.6-0.4-1.3-0.9c-0.4-0.3-0.9-0.5-1.2-0.7c-0.4-0.3-1.5-0.8-2.2-1
	c-0.2-0.1-0.3-0.2-0.5-0.2l0,0c3.3-3.2,7.7-4.9,12.3-4.8c10.1,0,18.4,8.3,18.4,18.4C61.8,40.7,59.9,45.4,56.5,48.9 M25.4,54.3
	c-8.3,0-15.2-6.8-15.2-15.2S17,24.1,25.3,24.1c3.7,0,7.3,1.4,10,3.8l0.1,0.1l6.3,6.4c0.5,0.5,0.8,1.2,0.8,2c0,0.7-0.3,1.4-0.9,1.9
	c-0.5,0.5-1.2,0.8-1.9,0.8c-0.8,0-1.4-0.3-2-0.9l-6.2-6.4c-1.8-1.5-4-2.3-6.3-2.3c-5.4,0-9.6,4.3-9.7,9.6c0.2,5.4,4.5,9.7,10,9.8
	h1.3l0,0c1.8,2.5,6.7,5.4,6.7,5.4H25.4z M58.6,21.2c-4-4.3-9.6-6.7-15.5-6.7c-5.8,0-11.2,2.3-15.3,6.5c-0.7-0.1-1.4-0.1-2-0.1
	c-10,0-18.1,8.2-18.2,18.2c0,4.8,1.9,9.3,5.1,12.7c3.4,3.7,8.1,5.7,13.1,5.7h17.4c11.8-0.1,21.4-9.7,21.4-21.5
	C64.5,30.4,62.4,25.2,58.6,21.2"/>
</svg>
