<?xml version="1.0" encoding="UTF-8"?><svg id="Layer_1" xmlns="http://www.w3.org/2000/svg" width="72" height="72" xmlns:xlink="http://www.w3.org/1999/xlink" viewBox="0 0 72 72"><defs><style>.cls-1{fill:#fff;}.cls-2{fill:url(#linear-gradient);}</style><linearGradient id="linear-gradient" x1="0" y1="72" x2="1" y2="71" gradientTransform="translate(0 5184) scale(72 -72)" gradientUnits="userSpaceOnUse"><stop offset="0" stop-color="#04adbf"/><stop offset="1" stop-color="#0b8cbf"/></linearGradient></defs><circle class="cls-2" cx="36" cy="36" r="36"/><g><path class="cls-1" d="M10.84,32.99c0,4.52,1.67,8.96,4.75,12.58-.63,1.34-1.54,2.41-2.71,3.16-.7,.45-1.03,1.29-.85,2.1,.18,.8,.83,1.4,1.64,1.51,1.85,.26,5.36,.4,8.73-1.34,3.67,1.93,7.84,2.95,12.13,2.95,2.48,0,4.92-.33,7.26-1,.72-.21,1.14-.95,.93-1.67-.2-.72-.95-1.14-1.67-.93-2.1,.6-4.29,.9-6.52,.9-4.09,0-8.05-1.03-11.47-2.97-.42-.24-.95-.23-1.38,.01-1.99,1.19-4.1,1.5-5.77,1.5h-.02c1.1-1.08,1.95-2.42,2.53-3.99,.18-.48,.07-1.02-.28-1.4-3.02-3.27-4.6-7.21-4.6-11.39,0-10.06,9.42-18.23,20.99-18.23,10.73,0,19.71,6.99,20.86,16.25,.09,.74,.77,1.28,1.52,1.18,.74-.09,1.28-.78,1.18-1.52-1.32-10.61-11.44-18.62-23.55-18.62-13.06,0-23.7,9.4-23.7,20.95Z"/><circle class="cls-1" cx="34.53" cy="32.99" r="1.51"/><circle class="cls-1" cx="28.04" cy="32.99" r="1.51"/><circle class="cls-1" cx="41.03" cy="32.99" r="1.51"/><path class="cls-1" d="M53.9,33.43c-6.21,0-11.26,5.05-11.26,11.26s5.05,11.27,11.26,11.27,11.26-5.05,11.26-11.26-5.05-11.27-11.26-11.27Zm0,19.81c-4.71,0-8.54-3.84-8.54-8.54s3.84-8.54,8.54-8.54,8.54,3.84,8.54,8.54-3.83,8.54-8.54,8.54Z"/><path class="cls-1" d="M55.91,41.65l-3.22,3.19-.79-.79c-.53-.53-1.39-.53-1.92,0s-.53,1.39,0,1.92l1.74,1.75c.26,.26,.6,.4,.96,.4h0c.35,0,.7-.14,.95-.4l4.18-4.15c.53-.53,.53-1.39,0-1.92-.53-.53-1.39-.53-1.92-.01Z"/></g></svg>