<?xml version="1.0" encoding="UTF-8"?><svg id="Layer_1" xmlns="http://www.w3.org/2000/svg" width="72" height="72" xmlns:xlink="http://www.w3.org/1999/xlink" viewBox="0 0 72 72"><defs><style>.cls-1{fill:#fff;}.cls-2{fill:url(#linear-gradient);}</style><linearGradient id="linear-gradient" x1="0" y1="72" x2="1" y2="71" gradientTransform="translate(0 5184) scale(72 -72)" gradientUnits="userSpaceOnUse"><stop offset="0" stop-color="#04adbf"/><stop offset="1" stop-color="#0b8cbf"/></linearGradient></defs><circle class="cls-2" cx="36" cy="36" r="36"/><path class="cls-1" d="M36,26c-5.52,0-10,4.48-10,10s4.48,10,10,10,10-4.48,10-10-4.48-10-10-10Zm0,15c-2.76,0-5-2.24-5-5s2.24-5,5-5,5,2.24,5,5-2.24,5-5,5Z"/><circle class="cls-1" cx="36" cy="56" r="7.5"/><circle class="cls-1" cx="16" cy="36" r="7.5"/><circle class="cls-1" cx="56" cy="36" r="7.5"/><circle class="cls-1" cx="36" cy="16" r="7.5"/><rect class="cls-1" x="19" y="33.5" width="10" height="5"/><path class="cls-1" d="M20.98,15.65c-2.76,0-5,2.24-5,5s2.24,5,5,5,5-2.24,5-5-2.24-5-5-5Zm0,7.5c-1.38,0-2.5-1.12-2.5-2.5s1.12-2.5,2.5-2.5,2.5,1.12,2.5,2.5-1.12,2.5-2.5,2.5Z"/><rect class="cls-1" x="22.91" y="26.3" width="9.95" height="2.5" transform="translate(27.65 -11.64) rotate(45)"/><path class="cls-1" d="M56.02,20.56c0-2.76-2.24-5-5-5s-5,2.24-5,5,2.24,5,5,5,5-2.24,5-5Zm-7.5,0c0-1.38,1.12-2.5,2.5-2.5s2.5,1.12,2.5,2.5c0,1.38-1.12,2.5-2.5,2.5s-2.5-1.12-2.5-2.5Z"/><rect class="cls-1" x="38.39" y="26.52" width="10.83" height="2.5" transform="translate(94.42 16.43) rotate(135)"/><rect class="cls-1" x="44.28" y="33.5" width="10" height="5"/><rect class="cls-1" x="31" y="21" width="10" height="5" transform="translate(59.5 -12.5) rotate(90)"/><rect class="cls-1" x="31" y="45.38" width="10" height="5" transform="translate(83.88 11.88) rotate(90)"/><path class="cls-1" d="M51.02,55.81c2.76,0,5-2.24,5-5s-2.24-5-5-5-5,2.24-5,5,2.24,5,5,5Zm0-7.5c1.38,0,2.5,1.12,2.5,2.5s-1.12,2.5-2.5,2.5-2.5-1.12-2.5-2.5,1.12-2.5,2.5-2.5Z"/><rect class="cls-1" x="38.52" y="42.4" width="10.68" height="2.5" transform="translate(44.01 105.53) rotate(-135)"/><path class="cls-1" d="M15.98,50.9c0,2.76,2.24,5,5,5s5-2.24,5-5-2.24-5-5-5-5,2.24-5,5Zm7.5,0c0,1.38-1.12,2.5-2.5,2.5s-2.5-1.12-2.5-2.5c0-1.38,1.12-2.5,2.5-2.5s2.5,1.12,2.5,2.5Z"/><rect class="cls-1" x="22.73" y="42.33" width="11.14" height="2.5" transform="translate(-22.53 32.78) rotate(-45)"/></svg>