<?xml version="1.0" encoding="UTF-8"?><svg id="Layer_1" xmlns="http://www.w3.org/2000/svg" width="72" height="72" xmlns:xlink="http://www.w3.org/1999/xlink" viewBox="0 0 72 72"><defs><style>.cls-1{fill:#fff;}.cls-2{fill:url(#linear-gradient);}</style><linearGradient id="linear-gradient" x1="0" y1="72" x2="1" y2="71" gradientTransform="translate(0 5184) scale(72 -72)" gradientUnits="userSpaceOnUse"><stop offset="0" stop-color="#04adbf"/><stop offset="1" stop-color="#0b8cbf"/></linearGradient></defs><circle class="cls-2" cx="36" cy="36" r="36"/><path class="cls-1" d="M36,9.75c14.47,0,26.25,11.78,26.25,26.25s-11.78,26.25-26.25,26.25-26.25-11.78-26.25-26.25S21.53,9.75,36,9.75m0-3.75c-16.57,0-30,13.43-30,30s13.43,30,30,30,30-13.43,30-30S52.57,6,36,6h0Z"/><path class="cls-1" d="M52.3,33.81l-3.17-3.17v-7.77c0-1.2-.98-2.19-2.19-2.19h-2.19c-1.2,0-2.19,.98-2.19,2.19v1.21l-4.38-4.37c-.6-.56-1.14-1.21-2.19-1.21s-1.59,.65-2.19,1.21l-14.11,14.1c-.68,.71-1.2,1.23-1.2,2.19,0,1.23,.95,2.19,2.19,2.19h2.19v13.12c0,1.2,.98,2.19,2.19,2.19h6.56v-10.94c0-1.2,.98-2.19,2.19-2.19h4.38c1.2,0,2.19,.98,2.19,2.19v10.94h6.56c1.2,0,2.19-.98,2.19-2.19v-13.12h2.19c1.24,0,2.19-.96,2.19-2.19,0-.96-.52-1.48-1.2-2.19Z"/></svg>