<?xml version="1.0" encoding="UTF-8"?><svg id="Layer_1" xmlns="http://www.w3.org/2000/svg" width="72" height="72" xmlns:xlink="http://www.w3.org/1999/xlink" viewBox="0 0 72 72"><defs><style>.cls-1{fill:#fff;}.cls-2{fill:url(#linear-gradient);}</style><linearGradient id="linear-gradient" x1="0" y1="72" x2="1" y2="71" gradientTransform="translate(0 5184) scale(72 -72)" gradientUnits="userSpaceOnUse"><stop offset="0" stop-color="#04adbf"/><stop offset="1" stop-color="#0b8cbf"/></linearGradient></defs><circle class="cls-2" cx="36" cy="36" r="36"/><path class="cls-1" d="M36,9.75c14.47,0,26.25,11.78,26.25,26.25s-11.78,26.25-26.25,26.25-26.25-11.78-26.25-26.25S21.53,9.75,36,9.75m0-3.75c-16.57,0-30,13.43-30,30s13.43,30,30,30,30-13.43,30-30S52.57,6,36,6h0Zm16.73,40.03l-.17-.51c-.4-1.18-1.7-2.41-2.9-2.74l-4.43-1.21c-1.2-.32-2.91,.12-3.8,1l-1.6,1.6c-5.83-1.58-10.4-6.15-11.98-11.98l1.6-1.6c.88-.88,1.32-2.59,.99-3.8l-1.21-4.44c-.32-1.2-1.56-2.5-2.74-2.9l-.51-.17c-1.18-.4-2.87,0-3.75,.89l-2.4,2.4c-.43,.42-.7,1.65-.7,1.65-.08,7.62,2.91,14.97,8.3,20.36,5.38,5.38,12.69,8.36,20.29,8.3,.04,0,1.3-.27,1.73-.7l2.4-2.4c.89-.87,1.29-2.56,.89-3.74Z"/></svg>