<?xml version="1.0" encoding="UTF-8"?><svg id="Layer_1" xmlns="http://www.w3.org/2000/svg" width="18.19" height="32" viewBox="0 0 18.19 32"><defs><style>.cls-1{fill:#0b8cbf;}.cls-2{fill:#0d0d0d;}.cls-3{fill:#1d1d1b;}</style></defs><rect class="cls-1" x="7.12" y="15.67" width="4.28" height="9.33" transform="translate(29.6 11.08) rotate(90)"/><rect class="cls-1" x="12.62" y="7.64" width="5.57" height="24.36"/><rect class="cls-3" x="0" y="22.54" width="5.57" height="9.46"/><rect class="cls-1" x="0" y="17.69" width="5.57" height="14.31"/><path class="cls-2" d="M5.57,15.28s2.53-.03,4-.03c1.65,.03,8.74-.55,8.62-7.74C17.73,0,9.76,0,9.76,0H0V11.09H0V29.71c2.54-.7,5.58-2.53,5.57-7.17m3.69-11.57h-3.69V4.3h3.52s3.29-.26,3.43,3.33c.14,3.59-3.27,3.33-3.27,3.33Z"/></svg>