<?xml version="1.0" encoding="UTF-8"?><svg id="Layer_1" xmlns="http://www.w3.org/2000/svg" width="20" height="8.79" viewBox="0 0 20 8.79"><path d="M.97,8.32s.08-.03,.08-.08l.22-1.78-.22-1.82s-.04-.08-.08-.08-.08,.03-.08,.08l-.2,1.82,.2,1.78s.04,.08,.08,.08Z" style="fill:#fff;"/><path d="M.23,7.65s.07-.03,.08-.08l.17-1.1-.17-1.13s-.04-.08-.08-.08-.08,.03-.08,.08l-.15,1.13,.15,1.1s.04,.08,.08,.08Z" style="fill:#fff;"/><path d="M1.85,4.31c0-.06-.05-.1-.1-.1s-.09,.04-.1,.1l-.19,2.16,.19,2.08c0,.06,.05,.1,.1,.1s.09-.04,.1-.1l.21-2.08-.21-2.16Z" style="fill:#fff;"/><path d="M2.54,8.72c.06,0,.11-.05,.12-.12l.2-2.14-.2-2.22c0-.07-.06-.12-.12-.12s-.11,.05-.12,.12l-.18,2.22,.18,2.14c0,.07,.05,.12,.12,.12Z" style="fill:#fff;"/><path d="M3.34,8.76c.07,0,.13-.06,.14-.13h0l.19-2.16-.19-2.06c0-.08-.06-.13-.13-.13s-.13,.06-.13,.13l-.17,2.06,.17,2.16c0,.08,.06,.13,.13,.13Z" style="fill:#fff;"/><path d="M4.48,6.46l-.18-3.34c0-.08-.07-.15-.15-.15s-.15,.07-.15,.15l-.16,3.34,.16,2.16c0,.09,.07,.15,.15,.15s.15-.07,.15-.15h0l.18-2.16Z" style="fill:#fff;"/><path d="M4.96,8.78c.09,0,.16-.07,.17-.17h0l.17-2.15-.17-4.11c0-.09-.08-.17-.17-.17s-.16,.07-.17,.17l-.15,4.11,.15,2.15c0,.09,.08,.17,.17,.17Z" style="fill:#fff;"/><path d="M5.78,1.82c-.1,0-.18,.08-.19,.19l-.14,4.45,.14,2.13c0,.1,.09,.19,.19,.19s.18-.08,.19-.19h0l.15-2.13-.15-4.45c0-.1-.09-.19-.19-.19Z" style="fill:#fff;"/><path d="M6.6,8.78c.11,0,.2-.09,.2-.2h0l.14-2.11-.14-4.6c0-.11-.09-.2-.2-.2s-.2,.09-.2,.2l-.13,4.6,.13,2.11c0,.11,.09,.2,.2,.2Z" style="fill:#fff;"/><path d="M7.43,8.78c.12,0,.22-.1,.22-.22h0l.13-2.09-.13-4.49c0-.12-.1-.22-.22-.22s-.22,.1-.22,.22l-.12,4.49,.12,2.09c0,.12,.1,.22,.22,.22Z" style="fill:#fff;"/><path d="M8.62,6.47l-.12-4.32c0-.13-.11-.24-.24-.24s-.23,.1-.24,.24l-.11,4.32,.11,2.08c0,.13,.11,.24,.24,.24s.23-.1,.24-.24h0l.12-2.08Z" style="fill:#fff;"/><path d="M9.11,8.79c.14,0,.25-.11,.25-.26h0l.11-2.06-.11-5.14c0-.14-.12-.26-.25-.26s-.25,.11-.25,.26l-.1,5.14,.1,2.07c0,.14,.12,.25,.25,.25Z" style="fill:#fff;"/><path d="M9.95,.58c-.15,0-.27,.12-.27,.27l-.11,5.61,.11,2.04c0,.15,.12,.27,.27,.27s.27-.12,.27-.27h0l.12-2.03-.12-5.61c0-.15-.12-.27-.27-.27Z" style="fill:#fff;"/><path d="M10.72,8.79s6.77,0,6.82,0c1.36,0,2.46-1.11,2.46-2.49s-1.1-2.49-2.46-2.49c-.34,0-.66,.07-.95,.19-.19-2.24-2.05-4.01-4.32-4.01-.55,0-1.1,.11-1.57,.3-.19,.07-.24,.15-.24,.29v7.9c0,.15,.12,.28,.27,.29Z" style="fill:#fff;"/></svg>